<svg width="140" height="40" viewBox="0 0 140 40" fill="none" xmlns="http://www.w3.org/2000/svg">
<path fill-rule="evenodd" clip-rule="evenodd" d="M71.9253 11.8132H73.1017C74.2247 11.8132 74.9199 11.2382 74.9199 10.1406C74.9199 9.04302 74.2247 8.46809 73.1017 8.46809H71.9253V11.8132ZM73.7969 6.42969C76.0964 6.42969 77.6472 7.89315 77.6472 10.0884C77.6472 12.2836 76.0429 13.747 73.6365 13.747H71.8718V16.7785H69.1445V6.42969H73.7969Z" fill="#002930"/>
<path fill-rule="evenodd" clip-rule="evenodd" d="M81.4421 14.6878H82.7255C84.4902 14.6878 85.4528 13.6425 85.4528 11.5518C85.4528 9.61795 84.4368 8.52035 82.7255 8.52035H81.4421V14.6878ZM83.0464 6.42969C86.255 6.42969 88.1266 8.25902 88.1266 11.5518C88.1266 14.8446 86.255 16.8308 83.0464 16.8308H78.7148V6.42969H83.0464Z" fill="#002930"/>
<path fill-rule="evenodd" clip-rule="evenodd" d="M91.9265 11.8132H93.103C94.226 11.8132 94.9211 11.2382 94.9211 10.1406C94.9211 9.04302 94.226 8.46809 93.103 8.46809H91.9265V11.8132ZM93.8516 6.42969C96.1511 6.42969 97.7019 7.89315 97.7019 10.0884C97.7019 12.2836 96.0976 13.747 93.6912 13.747H91.9265V16.7785H89.1992V6.42969H93.8516Z" fill="#002930"/>
<path fill-rule="evenodd" clip-rule="evenodd" d="M72.5146 28.3784H74.921L73.7445 24.3539H73.6911L72.5146 28.3784ZM75.4558 30.3123H71.9798L71.2846 32.612H68.5039L72.0868 22.2109H75.4023L78.9852 32.612H76.0975L75.4558 30.3123Z" fill="#002930"/>
<path fill-rule="evenodd" clip-rule="evenodd" d="M78.6094 27.3913C78.6094 23.9939 80.588 22.0078 83.7966 22.0078C86.4704 22.0078 88.5024 23.6803 88.6094 26.1369H85.9891C85.8821 24.9347 84.973 24.0985 83.7966 24.0985C82.2992 24.0985 81.3901 25.3529 81.3901 27.339C81.3901 29.3774 82.2992 30.6318 83.7966 30.6318C84.973 30.6318 85.8286 29.8478 85.9891 28.6457H88.6094C88.5024 31.1022 86.5238 32.7225 83.7966 32.7225C80.588 32.7748 78.6094 30.7886 78.6094 27.3913Z" fill="#002930"/>
<path fill-rule="evenodd" clip-rule="evenodd" d="M92.2998 28.3784H94.7062L93.5297 24.3539H93.4762L92.2998 28.3784ZM95.2409 30.3123H91.765L91.0698 32.612H88.2891L91.8719 22.2109H95.1874L98.7703 32.612H95.8826L95.2409 30.3123Z" fill="#002930"/>
<path fill-rule="evenodd" clip-rule="evenodd" d="M102.137 30.4691H103.421C105.186 30.4691 106.148 29.4237 106.148 27.3331C106.148 25.3992 105.132 24.3016 103.421 24.3016H102.137V30.4691ZM103.742 22.2109C106.95 22.2109 108.822 24.0403 108.822 27.3331C108.822 30.6259 106.95 32.612 103.742 32.612H99.4102V22.2109H103.742Z" fill="#002930"/>
<path fill-rule="evenodd" clip-rule="evenodd" d="M116.843 32.5597H109.57V22.2109H116.843V24.3539H112.244V26.4445H116.576V28.3784H112.244V30.4691H116.843V32.5597Z" fill="#002930"/>
<path fill-rule="evenodd" clip-rule="evenodd" d="M126.951 32.5597V26.0787H126.897L124.277 32.5597H122.726L120.106 26.0787H120.052V32.5597H117.699V22.2109H120.801L123.475 29.0056H123.528L126.202 22.2109H129.303V32.612H126.951V32.5597Z" fill="#002930"/>
<path fill-rule="evenodd" clip-rule="evenodd" d="M133.636 32.5597V29.0056L130 22.2109H132.888L135.027 26.5491H135.08L137.166 22.2109H140L136.364 29.0056V32.5597H133.636Z" fill="#002930"/>
<path fill-rule="evenodd" clip-rule="evenodd" d="M13.4759 6.42969C6.04278 6.42969 0 12.3358 0 19.6009C0 26.866 6.04278 32.7721 13.4759 32.7721C20.9091 32.7721 26.9519 26.866 26.9519 19.6009C26.8984 12.3358 20.8556 6.42969 13.4759 6.42969Z" fill="#00B533"/>
<path fill-rule="evenodd" clip-rule="evenodd" d="M38.7185 39.2H30.4297L40.2158 0H48.5046L38.7185 39.2Z" fill="#002930"/>
<path fill-rule="evenodd" clip-rule="evenodd" d="M50.7497 39.2H42.4609L52.247 0H60.5358L50.7497 39.2Z" fill="#002930"/>
</svg>
