<svg width="20" height="20" viewBox="0 0 20 20" fill="none" xmlns="http://www.w3.org/2000/svg">
<path d="M11.6675 12.4175V17.1698C11.6683 17.8141 12.9737 18.3368 14.5849 18.3368C16.1962 18.3368 17.5016 17.8141 17.5024 17.1698V12.4175" stroke="#B1B5C4" stroke-width="1.25" stroke-linecap="round" stroke-linejoin="round"/>
<path d="M11.6682 14.7936C11.6682 15.438 12.9744 15.9606 14.5857 15.9606C16.1969 15.9606 17.5031 15.438 17.5031 14.7936" stroke="#B1B5C4" stroke-width="1.25" stroke-linecap="round" stroke-linejoin="round"/>
<path d="M4.99805 9.16635H5.83173" stroke="#B1B5C4" stroke-width="1.25" stroke-linecap="round" stroke-linejoin="round"/>
<path d="M8.33276 9.16635H9.16644" stroke="#B1B5C4" stroke-width="1.25" stroke-linecap="round" stroke-linejoin="round"/>
<path d="M4.99805 11.6673H5.83173" stroke="#B1B5C4" stroke-width="1.25" stroke-linecap="round" stroke-linejoin="round"/>
<path d="M8.33276 11.6673H9.16644" stroke="#B1B5C4" stroke-width="1.25" stroke-linecap="round" stroke-linejoin="round"/>
<path d="M4.99805 9.16635H5.83173" stroke="#B1B5C4" stroke-width="1.25" stroke-linecap="round" stroke-linejoin="round"/>
<path d="M8.33276 9.16635H9.16644" stroke="#B1B5C4" stroke-width="1.25" stroke-linecap="round" stroke-linejoin="round"/>
<path d="M4.99805 14.1684H5.83173" stroke="#B1B5C4" stroke-width="1.25" stroke-linecap="round" stroke-linejoin="round"/>
<path d="M8.33276 14.1684H9.16644" stroke="#B1B5C4" stroke-width="1.25" stroke-linecap="round" stroke-linejoin="round"/>
<path d="M4.99805 14.1684H5.83173" stroke="#B1B5C4" stroke-width="1.25" stroke-linecap="round" stroke-linejoin="round"/>
<path d="M8.33276 14.1684H9.16644" stroke="#B1B5C4" stroke-width="1.25" stroke-linecap="round" stroke-linejoin="round"/>
<path d="M15.0023 6.66525H2.49707" stroke="#B1B5C4" stroke-width="1.25" stroke-linecap="round" stroke-linejoin="round"/>
<path d="M9.16651 16.6694H4.16443C3.24357 16.6694 2.49707 15.9229 2.49707 15.002V4.16419C2.49707 3.24333 3.24357 2.49683 4.16443 2.49683H13.3349C14.2558 2.49683 15.0023 3.24333 15.0023 4.16419V9.16627" stroke="#B1B5C4" stroke-width="1.25" stroke-linecap="round" stroke-linejoin="round"/>
<path d="M4.99805 9.16635H5.83173" stroke="#B1B5C4" stroke-width="1.25" stroke-linecap="round" stroke-linejoin="round"/>
<path d="M8.33276 9.16635H9.16644" stroke="#B1B5C4" stroke-width="1.25" stroke-linecap="round" stroke-linejoin="round"/>
<path d="M11.6675 9.16635H12.5012" stroke="#B1B5C4" stroke-width="1.25" stroke-linecap="round" stroke-linejoin="round"/>
<path d="M11.6683 12.4175C11.6683 13.0618 12.9745 13.5845 14.5858 13.5845C16.1971 13.5845 17.5024 13.0618 17.5024 12.4175C17.5024 11.7723 16.1954 11.2505 14.5849 11.2505C12.9745 11.2505 11.6683 11.7731 11.6675 12.4175" stroke="#B1B5C4" stroke-width="1.25" stroke-linecap="round" stroke-linejoin="round"/>
</svg>
