<svg width="20" height="20" viewBox="0 0 20 20" fill="none" xmlns="http://www.w3.org/2000/svg">
<path d="M9.6582 10.4904L9.65838 10.4902C9.69899 10.4495 9.69893 10.3836 9.65825 10.343C9.61756 10.3023 9.55164 10.3023 9.51098 10.343C9.47032 10.3837 9.4703 10.4496 9.51093 10.4903C9.55157 10.531 9.61749 10.531 9.6582 10.4904" stroke="#45B36B" stroke-width="1.5" stroke-linecap="round" stroke-linejoin="round"/>
<path d="M2.5 11.5407C2.74898 11.5023 3.00042 11.4822 3.25232 11.4805V11.4805C6.16076 11.4805 8.51852 13.8382 8.51852 16.7467C8.5162 16.9985 8.49609 17.2499 8.45833 17.499" stroke="#45B36B" stroke-width="1.5" stroke-linecap="round" stroke-linejoin="round"/>
<rect x="2.5" y="6.66797" width="10.8333" height="10.8333" rx="3" stroke="#45B36B" stroke-width="1.5" stroke-linecap="round" stroke-linejoin="round"/>
<path d="M15 3.33464H18.3333" stroke="#45B36B" stroke-width="1.5" stroke-linecap="round" stroke-linejoin="round"/>
<path d="M16.6667 5.0013V1.66797" stroke="#45B36B" stroke-width="1.5" stroke-linecap="round" stroke-linejoin="round"/>
<path d="M16.6654 7.5V12.5C16.6654 13.8807 15.5461 15 14.1654 15H13.332" stroke="#45B36B" stroke-width="1.5" stroke-linecap="round" stroke-linejoin="round"/>
<path d="M5 6.66536V5.83203C5 4.45132 6.11929 3.33203 7.5 3.33203H12.5" stroke="#45B36B" stroke-width="1.5" stroke-linecap="round" stroke-linejoin="round"/>
</svg>
