<svg width="20" height="20" viewBox="0 0 20 20" fill="none" xmlns="http://www.w3.org/2000/svg">
<path d="M17.3271 7.93621C17.9855 8.59457 17.9855 9.66198 17.3271 10.3203C16.6688 10.9787 15.6013 10.9787 14.943 10.3203C14.2846 9.66198 14.2846 8.59457 14.943 7.93621C15.6013 7.27785 16.6688 7.27785 17.3271 7.93621" stroke="#B1B5C4" stroke-width="1.25" stroke-linecap="round" stroke-linejoin="round"/>
<path d="M11.8357 4.92699C12.8494 5.94072 12.8494 7.58431 11.8357 8.59805C10.8219 9.61179 9.17834 9.61179 8.1646 8.59805C7.15086 7.58432 7.15086 5.94073 8.1646 4.92699C9.17833 3.91325 10.8219 3.91325 11.8357 4.92699" stroke="#B1B5C4" stroke-width="1.25" stroke-linecap="round" stroke-linejoin="round"/>
<path d="M5.05709 7.93621C5.71545 8.59457 5.71545 9.66198 5.05709 10.3203C4.39873 10.9787 3.33133 10.9787 2.67297 10.3203C2.01461 9.66198 2.01461 8.59457 2.67297 7.93621C3.33133 7.27785 4.39874 7.27785 5.05709 7.93621" stroke="#B1B5C4" stroke-width="1.25" stroke-linecap="round" stroke-linejoin="round"/>
<path d="M19.1666 15.8333V14.92C19.1666 13.7692 18.2341 12.8367 17.0833 12.8367H16.4158" stroke="#B1B5C4" stroke-width="1.25" stroke-linecap="round" stroke-linejoin="round"/>
<path d="M0.833252 15.8333V14.92C0.833252 13.7692 1.76575 12.8367 2.91659 12.8367H3.58409" stroke="#B1B5C4" stroke-width="1.25" stroke-linecap="round" stroke-linejoin="round"/>
<path d="M14.449 15.8333V14.4991C14.449 12.8883 13.1431 11.5825 11.5323 11.5825H8.46647C6.85564 11.5825 5.5498 12.8883 5.5498 14.4991V15.8333" stroke="#B1B5C4" stroke-width="1.25" stroke-linecap="round" stroke-linejoin="round"/>
</svg>
