<svg width="14" height="14" viewBox="0 0 14 14" fill="none" xmlns="http://www.w3.org/2000/svg">
<path fill-rule="evenodd" clip-rule="evenodd" d="M1.16602 6.9974C1.16602 3.77573 3.77769 1.16406 6.99935 1.16406C8.54645 1.16406 10.0302 1.77864 11.1241 2.87261C12.2181 3.96657 12.8327 5.4503 12.8327 6.9974C12.8327 10.2191 10.221 12.8307 6.99935 12.8307C3.77769 12.8307 1.16602 10.2191 1.16602 6.9974ZM6.84025 9.10375L9.50609 5.60375V5.58625C9.63321 5.41953 9.66174 5.19764 9.58092 5.00419C9.50009 4.81073 9.3222 4.67509 9.11425 4.64835C8.9063 4.62162 8.69988 4.70786 8.57275 4.87458L6.36775 7.79125L5.41692 6.57792C5.28875 6.41328 5.08248 6.32952 4.87582 6.3582C4.66915 6.38688 4.49348 6.52363 4.41498 6.71695C4.33649 6.91026 4.36708 7.13078 4.49525 7.29542L5.91859 9.10958C6.0299 9.25045 6.19988 9.33222 6.37942 9.33125C6.55996 9.33081 6.73012 9.24681 6.84025 9.10375Z" fill="#00B533"/>
</svg>
