<svg width="30" height="30" viewBox="0 0 30 30" fill="none" xmlns="http://www.w3.org/2000/svg">
<circle cx="15" cy="15" r="15" fill="#5E8DFF"/>
<path d="M8.30075 19.754L9.13443 18.31" stroke="#FCFCFD" stroke-width="1.25" stroke-linecap="round" stroke-linejoin="round"/>
<path d="M13.3554 22.668L14.1891 21.224" stroke="#FCFCFD" stroke-width="1.25" stroke-linecap="round" stroke-linejoin="round"/>
<path fill-rule="evenodd" clip-rule="evenodd" d="M14.2685 23.2026L7.38791 19.2301C6.97713 18.993 6.68673 18.5922 6.58947 18.1279C6.49222 17.6637 6.5973 17.18 6.8784 16.7979L8.47951 14.6216C9.48637 13.2532 11.3611 12.8604 12.8325 13.7097L16.327 15.7272C17.8006 16.5758 18.3997 18.3974 17.7174 19.9551L16.6332 22.4298C16.4426 22.865 16.0754 23.1981 15.6239 23.3457C15.1723 23.4933 14.6792 23.4412 14.2685 23.2026V23.2026Z" stroke="#FCFCFD" stroke-width="1.25" stroke-linecap="round" stroke-linejoin="round"/>
<path fill-rule="evenodd" clip-rule="evenodd" d="M19.1631 6.7737V6.7737C19.7612 7.11902 19.9661 7.88383 19.6208 8.48194L17.1197 12.8139C17.0046 13.0132 16.7497 13.0816 16.5503 12.9664L15.1064 12.1328C14.907 12.0177 14.8387 11.7627 14.9538 11.5634L17.4548 7.23142C17.8001 6.63331 18.5649 6.42838 19.1631 6.7737Z" stroke="#FCFCFD" stroke-width="1.25" stroke-linecap="round" stroke-linejoin="round"/>
<path fill-rule="evenodd" clip-rule="evenodd" d="M16.2029 15.6539L12.954 13.7782C12.7125 13.6387 12.5567 13.3879 12.5388 13.1096C12.5209 12.8314 12.6433 12.5626 12.8649 12.3935L13.5828 11.8453C13.8502 11.6411 14.2142 11.6178 14.5055 11.786L17.1524 13.3141C17.4437 13.4824 17.6055 13.8092 17.5624 14.1429L17.4466 15.0387C17.4109 15.3152 17.2393 15.5556 16.9894 15.6792C16.7395 15.8029 16.4444 15.7933 16.2029 15.6539V15.6539Z" stroke="#FCFCFD" stroke-width="1.25" stroke-linecap="round" stroke-linejoin="round"/>
<path d="M10.8281 21.2149L11.6618 19.7709" stroke="#FCFCFD" stroke-width="1.25" stroke-linecap="round" stroke-linejoin="round"/>
</svg>
