<svg width="12" height="12" viewBox="0 0 12 12" fill="none" xmlns="http://www.w3.org/2000/svg">
<path opacity="0.7" fill-rule="evenodd" clip-rule="evenodd" d="M4.1255 10.751C2.402 10.751 1 9.349 1 7.6255C1 5.902 2.402 4.5 4.1255 4.5C5.849 4.5 7.251 5.902 7.251 7.6255C7.251 9.349 5.849 10.751 4.1255 10.751Z" fill="#4BC9F0"/>
<path opacity="0.7" fill-rule="evenodd" clip-rule="evenodd" d="M7.87452 10.751C6.15102 10.751 4.74902 9.349 4.74902 7.6255C4.74902 5.902 6.15102 4.5 7.87452 4.5C9.59802 4.5 11 5.902 11 7.6255C11 9.349 9.59802 10.751 7.87452 10.751Z" fill="#45B36B"/>
<path opacity="0.7" fill-rule="evenodd" clip-rule="evenodd" d="M6.00496 7.4997C4.28146 7.4997 2.87946 6.0977 2.87946 4.3742C2.87946 2.6507 4.28146 1.2487 6.00496 1.2487C7.72846 1.2487 9.13046 2.6507 9.13046 4.3742C9.13046 6.0977 7.72846 7.4997 6.00496 7.4997Z" fill="#EF466F"/>
</svg>
