<svg width="24" height="24" viewBox="0 0 24 24" fill="none" xmlns="http://www.w3.org/2000/svg">
<path fill-rule="evenodd" clip-rule="evenodd" d="M7 6V14C7 15.6569 8.34315 17 10 17H18C19.6569 17 21 15.6569 21 14V6C21 4.34315 19.6569 3 18 3H10C8.34315 3 7 4.34315 7 6Z" stroke="#353945" stroke-width="1.5" stroke-linecap="round" stroke-linejoin="round"/>
<path d="M17 17V18C17 19.6569 15.6569 21 14 21H6C4.34315 21 3 19.6569 3 18V10C3 8.34315 4.34315 7 6 7H7" stroke="#353945" stroke-width="1.5" stroke-linecap="round" stroke-linejoin="round"/>
<path d="M14 12V8" stroke="#353945" stroke-width="1.5" stroke-linecap="round" stroke-linejoin="round"/>
<path d="M12 10H16" stroke="#353945" stroke-width="1.5" stroke-linecap="round" stroke-linejoin="round"/>
</svg>
