<svg width="10" height="9" viewBox="0 0 10 9" fill="none" xmlns="http://www.w3.org/2000/svg">
<path d="M6.08006 8.5736H7.16423L4.45379 0.984375H3.36962L0.65918 8.5736H1.74335L2.50228 6.40525H5.26692L6.08006 8.5736ZM2.88174 5.32108L3.91171 2.50222L4.94167 5.32108H2.88174ZM9.82046 7.76047C9.82046 7.92129 9.77277 8.0785 9.68342 8.21222C9.59407 8.34594 9.46708 8.45016 9.3185 8.5117C9.16992 8.57325 9.00643 8.58935 8.84869 8.55798C8.69096 8.5266 8.54608 8.44916 8.43236 8.33544C8.31864 8.22172 8.2412 8.07684 8.20982 7.9191C8.17845 7.76137 8.19455 7.59788 8.25609 7.4493C8.31764 7.30072 8.42186 7.17372 8.55558 7.08438C8.68929 6.99503 8.84651 6.94734 9.00733 6.94734C9.22298 6.94734 9.42981 7.03301 9.5823 7.1855C9.73479 7.33799 9.82046 7.54481 9.82046 7.76047ZM9.82046 5.59212C9.82046 5.75294 9.77277 5.91015 9.68342 6.04387C9.59407 6.17759 9.46708 6.28181 9.3185 6.34335C9.16992 6.4049 9.00643 6.421 8.84869 6.38963C8.69096 6.35825 8.54608 6.28081 8.43236 6.16709C8.31864 6.05337 8.2412 5.90849 8.20982 5.75075C8.17845 5.59302 8.19455 5.42953 8.25609 5.28095C8.31764 5.13237 8.42186 5.00537 8.55558 4.91602C8.68929 4.82668 8.84651 4.77899 9.00733 4.77899C9.22298 4.77899 9.42981 4.86466 9.5823 5.01715C9.73479 5.16964 9.82046 5.37646 9.82046 5.59212ZM9.82046 3.42377C9.82046 3.58459 9.77277 3.7418 9.68342 3.87552C9.59407 4.00924 9.46708 4.11346 9.3185 4.175C9.16992 4.23655 9.00643 4.25265 8.84869 4.22128C8.69096 4.1899 8.54608 4.11246 8.43236 3.99874C8.31864 3.88502 8.2412 3.74014 8.20982 3.5824C8.17845 3.42467 8.19455 3.26118 8.25609 3.1126C8.31764 2.96402 8.42186 2.83702 8.55558 2.74767C8.68929 2.65833 8.84651 2.61064 9.00733 2.61064C9.22298 2.61064 9.42981 2.69631 9.5823 2.8488C9.73479 3.00129 9.82046 3.20811 9.82046 3.42377Z" fill="black"/>
</svg>
