<svg width="12" height="6" viewBox="0 0 12 6" fill="none" xmlns="http://www.w3.org/2000/svg">
<path d="M5.81824 5.49119H3.64989C2.93104 5.49119 2.24163 5.20563 1.73332 4.69732C1.22502 4.18901 0.939453 3.4996 0.939453 2.78075C0.939453 2.0619 1.22502 1.37249 1.73332 0.864181C2.24163 0.355876 2.93104 0.0703125 3.64989 0.0703125H5.81824V1.15449H3.64989C3.21858 1.15449 2.80493 1.32583 2.49995 1.63081C2.19497 1.93579 2.02363 2.34944 2.02363 2.78075C2.02363 3.21206 2.19497 3.62571 2.49995 3.93069C2.80493 4.23568 3.21858 4.40701 3.64989 4.40701H5.81824V5.49119ZM9.07077 0.0703125H6.90242V1.15449H9.07077C9.50208 1.15449 9.91572 1.32583 10.2207 1.63081C10.5257 1.93579 10.697 2.34944 10.697 2.78075C10.697 3.21206 10.5257 3.62571 10.2207 3.93069C9.91572 4.23568 9.50208 4.40701 9.07077 4.40701H6.90242V5.49119H9.07077C9.78962 5.49119 10.479 5.20563 10.9873 4.69732C11.4956 4.18901 11.7812 3.4996 11.7812 2.78075C11.7812 2.0619 11.4956 1.37249 10.9873 0.864181C10.479 0.355876 9.78962 0.0703125 9.07077 0.0703125ZM8.52868 2.23866H4.19198V3.32284H8.52868V2.23866Z" fill="black"/>
</svg>
