<svg width="12" height="10" viewBox="0 0 12 10" fill="none" xmlns="http://www.w3.org/2000/svg">
<path d="M7.57441 4.23993L9.63434 6.95036H3.12929L4.75555 4.83622L5.89393 6.29986L7.46599 4.23993H7.57441ZM4.48451 4.23993C4.91818 4.23993 5.29764 3.86046 5.29764 3.42679C5.29764 2.99312 4.91818 2.61366 4.48451 2.61366C4.05084 2.61366 3.67138 2.99312 3.67138 3.42679C3.67138 3.86046 4.05084 4.23993 4.48451 4.23993ZM11.8027 1.52949V8.03454C11.8027 8.63083 11.3148 9.11871 10.7185 9.11871H2.04511C1.44882 9.11871 0.960938 8.63083 0.960938 8.03454V1.52949C0.960938 0.933191 1.44882 0.445312 2.04511 0.445312H10.7185C11.3148 0.445312 11.8027 0.933191 11.8027 1.52949ZM10.7185 3.04733V1.52949H2.04511V8.03454H10.7185V3.04733Z" fill="black"/>
</svg>
