<svg width="11" height="11" viewBox="0 0 11 11" fill="none" xmlns="http://www.w3.org/2000/svg">
<path d="M5.39637 0.898443C4.43165 0.899408 3.48886 1.18636 2.68719 1.72304C1.88552 2.25971 1.26096 3.02201 0.89244 3.91358C0.523924 4.80514 0.428004 5.78595 0.616803 6.73202C0.805603 7.67809 1.27065 8.54695 1.95315 9.22878C2.63566 9.9106 3.50498 10.3748 4.45124 10.5626C5.3975 10.7505 6.37821 10.6536 7.26941 10.2842C8.1606 9.91477 8.92228 9.28944 9.45815 8.48723C9.99403 7.68503 10.28 6.74196 10.28 5.77723C10.2804 5.13604 10.1542 4.50108 9.90884 3.9087C9.66347 3.31631 9.30367 2.77814 8.85005 2.32498C8.39644 1.87181 7.8579 1.51256 7.26528 1.26777C6.67265 1.02299 6.03756 0.897486 5.39637 0.898443ZM5.40125 9.57184C4.65075 9.57184 3.9171 9.34929 3.29308 8.93234C2.66906 8.51538 2.18269 7.92274 1.89549 7.22937C1.60828 6.53599 1.53313 5.77302 1.67955 5.03694C1.82597 4.30086 2.18737 3.62472 2.71805 3.09403C3.24874 2.56335 3.92488 2.20195 4.66096 2.05553C5.39704 1.90911 6.16001 1.98426 6.85339 2.27147C7.54676 2.55867 8.1394 3.04504 8.55636 3.66906C8.97331 4.29308 9.19586 5.02673 9.19586 5.77723C9.196 6.27559 9.09794 6.76908 8.90729 7.22953C8.71665 7.68997 8.43714 8.10834 8.08475 8.46073C7.73236 8.81312 7.31399 9.09263 6.85355 9.28327C6.3931 9.47392 5.89961 9.57198 5.40125 9.57184ZM7.08443 6.75299H7.89919C7.70319 7.25604 7.35986 7.6882 6.91416 7.99288C6.46845 8.29756 5.94114 8.46057 5.40125 8.46057C4.86136 8.46057 4.33405 8.29756 3.88835 7.99288C3.44264 7.6882 3.09932 7.25604 2.90331 6.75299H3.71807C3.88784 7.04946 4.13291 7.29582 4.42847 7.46716C4.72404 7.6385 5.05961 7.72874 5.40125 7.72874C5.74289 7.72874 6.07846 7.6385 6.37403 7.46716C6.66959 7.29582 6.91466 7.04946 7.08443 6.75299ZM2.96186 4.55753C2.96186 4.41279 3.00478 4.2713 3.08519 4.15096C3.1656 4.03061 3.2799 3.93681 3.41362 3.88142C3.54734 3.82603 3.69449 3.81154 3.83645 3.83978C3.9784 3.86801 4.1088 3.93771 4.21115 4.04006C4.3135 4.14241 4.38319 4.2728 4.41143 4.41476C4.43967 4.55672 4.42518 4.70387 4.36979 4.83759C4.3144 4.97131 4.2206 5.08561 4.10025 5.16602C3.9799 5.24643 3.83842 5.28935 3.69368 5.28935C3.49959 5.28935 3.31344 5.21225 3.1762 5.07501C3.03896 4.93777 2.96186 4.75162 2.96186 4.55753ZM6.37701 4.55753C6.37701 4.41279 6.41993 4.2713 6.50034 4.15096C6.58076 4.03061 6.69505 3.93681 6.82877 3.88142C6.96249 3.82603 7.10964 3.81154 7.2516 3.83978C7.39356 3.86801 7.52395 3.93771 7.6263 4.04006C7.72865 4.14241 7.79835 4.2728 7.82658 4.41476C7.85482 4.55672 7.84033 4.70387 7.78494 4.83759C7.72955 4.97131 7.63575 5.08561 7.5154 5.16602C7.39506 5.24643 7.25357 5.28935 7.10883 5.28935C6.91474 5.28935 6.7286 5.21225 6.59135 5.07501C6.45411 4.93777 6.37701 4.75162 6.37701 4.55753Z" fill="black"/>
</svg>
