<svg width="9" height="11" viewBox="0 0 9 11" fill="none" xmlns="http://www.w3.org/2000/svg">
<path d="M8.01208 9.11569V10.1999H0.422852V9.11569H8.01208ZM6.38581 5.43762C6.36797 5.79539 6.26176 6.14317 6.07668 6.44987C5.89161 6.75657 5.63344 7.01264 5.32523 7.1952C5.01703 7.37776 4.6684 7.48112 4.31049 7.49605C3.95259 7.51097 3.59656 7.43699 3.27423 7.28072C2.90271 7.11999 2.58763 6.852 2.36936 6.51108C2.1511 6.17016 2.03959 5.77184 2.04911 5.36715V0.987085H0.964939V5.43762C0.983279 5.94795 1.12152 6.44679 1.36848 6.89376C1.61543 7.34072 1.96416 7.72327 2.38644 8.01041C2.80871 8.29756 3.29267 8.48124 3.79912 8.54659C4.30558 8.61195 4.82031 8.55713 5.30164 8.38658C5.9419 8.17317 6.49741 7.76109 6.88737 7.21027C7.27734 6.65944 7.48143 5.99858 7.46999 5.32379V0.987085H6.38581V5.43762ZM6.38581 0.984375H7.46999H6.38581ZM2.04911 0.984375H0.964939H2.04911Z" fill="black"/>
</svg>
