<svg width="4" height="9" viewBox="0 0 4 9" fill="none" xmlns="http://www.w3.org/2000/svg">
<path d="M2.06662 3.15273H3.15079L1.9582 8.5736H0.874023L2.06662 3.15273ZM2.97732 0.984375C2.87011 0.984375 2.7653 1.01617 2.67616 1.07573C2.58701 1.1353 2.51753 1.21996 2.4765 1.31901C2.43547 1.41807 2.42474 1.52706 2.44565 1.63222C2.46657 1.73737 2.5182 1.83396 2.59401 1.90978C2.66982 1.98559 2.76641 2.03722 2.87157 2.05813C2.97672 2.07905 3.08572 2.06832 3.18477 2.02729C3.28382 1.98626 3.36849 1.91678 3.42805 1.82763C3.48762 1.73848 3.51941 1.63368 3.51941 1.52646C3.51941 1.38269 3.4623 1.24481 3.36064 1.14315C3.25898 1.04149 3.12109 0.984375 2.97732 0.984375Z" fill="black"/>
</svg>
