<svg width="7" height="9" viewBox="0 0 7 9" fill="none" xmlns="http://www.w3.org/2000/svg">
<path d="M4.94125 4.67057C5.20667 4.50894 5.43066 4.28754 5.59537 4.02402C5.76007 3.76049 5.86093 3.46213 5.8899 3.15273C5.89493 2.87294 5.84479 2.59491 5.74235 2.33452C5.63991 2.07412 5.48717 1.83645 5.29286 1.63509C5.09854 1.43373 4.86647 1.27263 4.60988 1.16097C4.3533 1.04932 4.07723 0.989314 3.79745 0.984375H0.279297V8.5736H4.07391C4.34016 8.57077 4.60324 8.51552 4.84813 8.41101C5.09303 8.30649 5.31494 8.15477 5.50119 7.96449C5.68744 7.77421 5.83439 7.54911 5.93364 7.30203C6.03289 7.05496 6.0825 6.79076 6.07963 6.52451V6.45946C6.07982 6.08385 5.9728 5.716 5.77115 5.39911C5.56949 5.08223 5.28158 4.82948 4.94125 4.67057ZM1.36347 2.06855H3.64024C3.87126 2.0614 4.09895 2.12508 4.29274 2.25105C4.48653 2.37701 4.63716 2.55923 4.72442 2.77326C4.81271 3.05937 4.78415 3.36879 4.64499 3.63391C4.50583 3.89903 4.26738 4.09828 3.98175 4.18811C3.87083 4.22062 3.75583 4.23705 3.64024 4.2369H1.36347V2.06855ZM3.85707 7.48943H1.36347V5.32108H3.85707C4.0881 5.31393 4.31578 5.37761 4.50957 5.50357C4.70336 5.62954 4.85399 5.81176 4.94125 6.02579C5.02954 6.3119 5.00099 6.62132 4.86183 6.88644C4.72267 7.15155 4.48422 7.3508 4.19859 7.44064C4.08767 7.47314 3.97266 7.48957 3.85707 7.48943Z" fill="black"/>
</svg>
