<svg width="20" height="20" viewBox="0 0 20 20" fill="none" xmlns="http://www.w3.org/2000/svg">
<path d="M13.7516 18.3312C11.6799 18.3312 10 16.6514 10 14.5797C10 12.508 11.6799 10.8281 13.7516 10.8281C15.8241 10.8281 17.5031 12.508 17.5031 14.5797C17.5031 16.6514 15.8241 18.3312 13.7516 18.3312" stroke="#FCFCFD" stroke-width="1.25" stroke-linecap="round" stroke-linejoin="round"/>
<path d="M14.8112 13.5234L12.6953 15.6393" stroke="#FCFCFD" stroke-width="1.25" stroke-linecap="round" stroke-linejoin="round"/>
<path d="M14.8112 15.6393L12.6953 13.5234" stroke="#FCFCFD" stroke-width="1.25" stroke-linecap="round" stroke-linejoin="round"/>
<path d="M15.0036 8.32795V6.5172C15.0036 6.07535 14.8277 5.651 14.515 5.33837L12.1574 2.98072C11.8447 2.66809 11.4204 2.49219 10.9785 2.49219H4.99939C4.07818 2.49219 3.33203 3.23833 3.33203 4.15955V15.8311C3.33203 16.7523 4.07818 17.4984 4.99939 17.4984H8.33411" stroke="#FCFCFD" stroke-width="1.25" stroke-linecap="round" stroke-linejoin="round"/>
<path d="M15.0043 6.66059H11.6696C11.2094 6.66059 10.8359 6.2871 10.8359 5.82691V2.49219" stroke="#FCFCFD" stroke-width="1.25" stroke-linecap="round" stroke-linejoin="round"/>
</svg>
