<svg width="20" height="20" viewBox="0 0 20 20" fill="none" xmlns="http://www.w3.org/2000/svg">
<path d="M15.8307 9.16667V6.52333C15.8307 6.08167 15.6549 5.6575 15.3424 5.345L12.9857 2.98833C12.6732 2.67583 12.2491 2.5 11.8074 2.5H5.83073C4.9099 2.5 4.16406 3.24583 4.16406 4.16667V15.8333C4.16406 16.7542 4.9099 17.5 5.83073 17.5H9.16406" stroke="#FCFCFD" stroke-width="1.25" stroke-linecap="round" stroke-linejoin="round"/>
<path d="M15.8307 6.66667H12.4974C12.0374 6.66667 11.6641 6.29333 11.6641 5.83333V2.5" stroke="#FCFCFD" stroke-width="1.25" stroke-linecap="round" stroke-linejoin="round"/>
<path fill-rule="evenodd" clip-rule="evenodd" d="M14.2832 17.2579L17.2499 14.2913C17.5757 13.9654 17.5757 13.4379 17.2499 13.1129L15.9282 11.7912C15.6024 11.4654 15.0749 11.4654 14.7499 11.7912L11.7832 14.7579C11.6266 14.9146 11.5391 15.1262 11.5391 15.3471V17.5021H13.6941C13.9149 17.5021 14.1266 17.4146 14.2832 17.2579Z" stroke="#FCFCFD" stroke-width="1.25" stroke-linecap="round" stroke-linejoin="round"/>
</svg>
