<svg width="46" height="38" viewBox="0 0 46 38" fill="none" xmlns="http://www.w3.org/2000/svg">
<path d="M18.9982 27.7188C18.5626 27.7188 18.2062 28.0751 18.211 28.5107C18.211 28.9463 18.5674 29.3027 19.003 29.3027C19.4386 29.3027 19.795 28.9463 19.795 28.5107C19.795 28.0751 19.4386 27.7188 18.9982 27.7188" stroke="#FCFCFD" stroke-width="3.5625" stroke-linecap="round" stroke-linejoin="round"/>
<path d="M18.9982 18.2109C18.5626 18.2109 18.2062 18.5673 18.211 19.0029C18.211 19.4385 18.5674 19.7949 19.003 19.7949C19.4386 19.7949 19.795 19.4385 19.795 19.0029C19.795 18.5673 19.4386 18.2109 18.9982 18.2109" stroke="#FCFCFD" stroke-width="3.5625" stroke-linecap="round" stroke-linejoin="round"/>
<path d="M18.9982 8.71094C18.5626 8.71094 18.2062 9.06734 18.211 9.50293C18.211 9.93853 18.5674 10.2949 19.003 10.2949C19.4386 10.2949 19.795 9.93853 19.795 9.50293C19.795 9.06734 19.4386 8.71094 18.9982 8.71094" stroke="#FCFCFD" stroke-width="3.5625" stroke-linecap="round" stroke-linejoin="round"/>
<path d="M26.9982 27.7188C26.5626 27.7188 26.2062 28.0751 26.211 28.5107C26.211 28.9463 26.5674 29.3027 27.003 29.3027C27.4386 29.3027 27.795 28.9463 27.795 28.5107C27.795 28.0751 27.4386 27.7188 26.9982 27.7188" stroke="#FCFCFD" stroke-width="3.5625" stroke-linecap="round" stroke-linejoin="round"/>
<path d="M26.9982 18.2109C26.5626 18.2109 26.2062 18.5673 26.211 19.0029C26.211 19.4385 26.5674 19.7949 27.003 19.7949C27.4386 19.7949 27.795 19.4385 27.795 19.0029C27.795 18.5673 27.4386 18.2109 26.9982 18.2109" stroke="#FCFCFD" stroke-width="3.5625" stroke-linecap="round" stroke-linejoin="round"/>
<path d="M26.9982 8.71094C26.5626 8.71094 26.2062 9.06734 26.211 9.50293C26.211 9.93853 26.5674 10.2949 27.003 10.2949C27.4386 10.2949 27.795 9.93853 27.795 9.50293C27.795 9.06734 27.4386 8.71094 26.9982 8.71094" stroke="#FCFCFD" stroke-width="3.5625" stroke-linecap="round" stroke-linejoin="round"/>
</svg>
