<svg width="20" height="20" viewBox="0 0 20 20" fill="none" xmlns="http://www.w3.org/2000/svg">
<path d="M6.66602 1.66406C6.20578 1.66406 5.83268 2.03716 5.83268 2.4974L5.83268 4.9974C5.83268 5.45763 5.45959 5.83073 4.99935 5.83073L2.49935 5.83073C2.03911 5.83073 1.66602 6.20382 1.66602 6.66406C1.66602 7.1243 2.03911 7.4974 2.49935 7.4974L4.99935 7.4974C6.38006 7.4974 7.49935 6.37811 7.49935 4.9974L7.49935 2.4974C7.49935 2.03716 7.12625 1.66406 6.66602 1.66406Z" fill="#FCFCFD"/>
<path d="M5.83268 17.4974C5.83268 17.9576 6.20578 18.3307 6.66602 18.3307C7.12625 18.3307 7.49935 17.9576 7.49935 17.4974L7.49935 14.9974C7.49935 13.6167 6.38006 12.4974 4.99935 12.4974L2.49935 12.4974C2.03911 12.4974 1.66602 12.8705 1.66602 13.3307C1.66602 13.791 2.03911 14.1641 2.49935 14.1641H4.99935C5.45959 14.1641 5.83268 14.5372 5.83268 14.9974L5.83268 17.4974Z" fill="#FCFCFD"/>
<path d="M14.166 17.4974C14.166 17.9576 13.7929 18.3307 13.3327 18.3307C12.8724 18.3307 12.4994 17.9576 12.4994 17.4974V14.9974C12.4994 13.6167 13.6186 12.4974 14.9994 12.4974H17.4994C17.9596 12.4974 18.3327 12.8705 18.3327 13.3307C18.3327 13.791 17.9596 14.1641 17.4994 14.1641H14.9994C14.5391 14.1641 14.166 14.5372 14.166 14.9974L14.166 17.4974Z" fill="#FCFCFD"/>
<path d="M14.166 2.4974C14.166 2.03716 13.7929 1.66406 13.3327 1.66406C12.8724 1.66406 12.4994 2.03716 12.4994 2.4974V4.9974C12.4994 6.37811 13.6186 7.4974 14.9994 7.4974H17.4994C17.9596 7.4974 18.3327 7.1243 18.3327 6.66406C18.3327 6.20383 17.9596 5.83073 17.4994 5.83073H14.9994C14.5391 5.83073 14.166 5.45763 14.166 4.9974V2.4974Z" fill="#FCFCFD"/>
</svg>
