<svg width="20" height="20" viewBox="0 0 20 20" fill="none" xmlns="http://www.w3.org/2000/svg">
<path fill-rule="evenodd" clip-rule="evenodd" d="M3.24756 9.99843C3.24823 9.50097 3.36269 9.01025 3.5822 8.56384C4.82426 6.17691 7.31004 4.69834 10.0004 4.74625C12.6907 4.69834 15.1765 6.17691 16.4185 8.56384C16.8647 9.4682 16.8647 10.5287 16.4185 11.433C15.1765 13.82 12.6907 15.2985 10.0004 15.2506C7.31004 15.2985 4.82426 13.82 3.5822 11.433C3.36269 10.9866 3.24823 10.4959 3.24756 9.99843Z" stroke="#FCFCFD" stroke-width="1.125" stroke-linecap="round" stroke-linejoin="round"/>
<path d="M12.2509 9.99898C12.2509 11.2421 11.2431 12.2499 9.99996 12.2499C8.7568 12.2499 7.74902 11.2421 7.74902 9.99898C7.74902 8.75583 8.7568 7.74805 9.99996 7.74805" stroke="#FCFCFD" stroke-width="1.125" stroke-linecap="round" stroke-linejoin="round"/>
</svg>
