<svg width="18" height="18" viewBox="0 0 18 18" fill="none" xmlns="http://www.w3.org/2000/svg">
<path fill-rule="evenodd" clip-rule="evenodd" d="M2.57031 9.00316C2.57095 8.52938 2.67996 8.06203 2.88902 7.63688C4.07194 5.36361 6.43934 3.95545 9.00156 4.00108C11.5638 3.95545 13.9312 5.36361 15.1141 7.63688C15.539 8.49817 15.539 9.50815 15.1141 10.3694C13.9312 12.6427 11.5638 14.0509 9.00156 14.0052C6.43934 14.0509 4.07194 12.6427 2.88902 10.3694C2.67996 9.94428 2.57095 9.47693 2.57031 9.00316Z" fill="#B1B5C4"/>
<path d="M11.1469 9.00312C11.1469 10.1871 10.1871 11.1469 9.00312 11.1469C7.81916 11.1469 6.85938 10.1871 6.85938 9.00312C6.85938 7.81916 7.81916 6.85938 9.00312 6.85938" stroke="#FCFCFD" stroke-linecap="round" stroke-linejoin="round"/>
</svg>
