<svg width="12" height="12" viewBox="0 0 12 12" fill="none" xmlns="http://www.w3.org/2000/svg">
<path d="M6.5 0.5C6.77614 0.5 7 0.723858 7 1V2.5C7 3.32843 7.67157 4 8.5 4H10C10.2761 4 10.5 4.22386 10.5 4.5V10C10.5 10.8284 9.82843 11.5 9 11.5H3C2.17157 11.5 1.5 10.8284 1.5 10V2C1.5 1.17157 2.17157 0.5 3 0.5H6.5Z" fill="#777E91"/>
<path d="M8.48871 0.58876C8.23406 0.481972 8 0.723861 8 1V2.5C8 2.77615 8.22386 3 8.5 3H10C10.2761 3 10.518 2.76595 10.4112 2.51129C10.365 2.40104 10.2986 2.29858 10.2071 2.20711L8.79289 0.792896C8.70142 0.701423 8.59897 0.634993 8.48871 0.58876Z" fill="#777E91"/>
</svg>
