<svg width="16" height="16" viewBox="0 0 16 16" fill="none" xmlns="http://www.w3.org/2000/svg">
<g clip-path="url(#clip0_4_93516)">
<path d="M2.66669 10.6641L2.66669 5.9974L2.66669 1.33073L12.4925 1.33073C13.3468 1.33073 13.8077 2.33285 13.2517 2.98152L10.6667 5.9974L13.2517 9.01327C13.8077 9.66194 13.3468 10.6641 12.4925 10.6641L2.66669 10.6641Z" fill="#FFD166"/>
<path d="M2.66669 0.666667C2.66669 0.298477 2.96516 0 3.33335 0C3.70154 0 4.00002 0.298477 4.00002 0.666667L4.00002 15.3333C4.00002 15.7015 3.70154 16 3.33335 16C2.96516 16 2.66669 15.7015 2.66669 15.3333L2.66669 0.666667Z" fill="#FFD166"/>
</g>
<defs>
<clipPath id="clip0_4_93516">
<rect width="16" height="16" fill="white"/>
</clipPath>
</defs>
</svg>
