<svg width="12" height="12" viewBox="0 0 12 12" fill="none" xmlns="http://www.w3.org/2000/svg">
<path d="M1 2.5C1 1.94772 1.44772 1.5 2 1.5H10C10.5523 1.5 11 1.94772 11 2.5C11 3.05228 10.5523 3.5 10 3.5H2C1.44772 3.5 1 3.05228 1 2.5Z" fill="#777E91"/>
<path d="M2.5 6C2.5 5.44772 2.94772 5 3.5 5H8.5C9.05229 5 9.5 5.44772 9.5 6C9.5 6.55228 9.05229 7 8.5 7H3.5C2.94772 7 2.5 6.55228 2.5 6Z" fill="#777E91"/>
<path d="M4 9.5C4 8.94772 4.44772 8.5 5 8.5H7C7.55228 8.5 8 8.94772 8 9.5C8 10.0523 7.55228 10.5 7 10.5H5C4.44772 10.5 4 10.0523 4 9.5Z" fill="#777E91"/>
</svg>
