<svg width="14" height="14" viewBox="0 0 14 14" fill="none" xmlns="http://www.w3.org/2000/svg">
<path d="M1.16602 2.91667C1.16602 2.27233 1.68835 1.75 2.33268 1.75H11.666C12.3103 1.75 12.8327 2.27233 12.8327 2.91667C12.8327 3.561 12.3103 4.08333 11.666 4.08333H2.33268C1.68835 4.08333 1.16602 3.561 1.16602 2.91667Z" fill="#45B36B"/>
<path d="M2.91602 7.00016C2.91602 6.35583 3.43835 5.8335 4.08268 5.8335H9.91602C10.5603 5.8335 11.0827 6.35583 11.0827 7.00016C11.0827 7.64449 10.5603 8.16683 9.91602 8.16683H4.08268C3.43835 8.16683 2.91602 7.64449 2.91602 7.00016Z" fill="#45B36B"/>
<path d="M4.66602 11.0832C4.66602 10.4388 5.18835 9.9165 5.83268 9.9165H8.16602C8.81035 9.9165 9.33268 10.4388 9.33268 11.0832C9.33268 11.7275 8.81035 12.2498 8.16602 12.2498H5.83268C5.18835 12.2498 4.66602 11.7275 4.66602 11.0832Z" fill="#45B36B"/>
</svg>
