<svg width="20" height="20" viewBox="0 0 20 20" fill="none" xmlns="http://www.w3.org/2000/svg">
<path d="M16.8696 12.4964L17.7091 9.63433C17.8582 9.12987 17.7606 8.58462 17.4456 8.1633C17.1306 7.74197 16.6353 7.49399 16.1093 7.49427H7.90501C7.16843 7.49422 6.51908 7.9775 6.30768 8.6831L4.36771 15.15C4.24636 15.5549 3.87336 15.8319 3.45066 15.8311V15.8311C3.19727 15.8309 2.95435 15.73 2.77533 15.5507C2.59632 15.3713 2.49587 15.1282 2.49609 14.8748V4.15955C2.49609 3.23869 3.2426 2.49219 4.16346 2.49219H7.88584C8.16468 2.49233 8.42498 2.63187 8.57946 2.86401L9.74911 4.62224C9.90427 4.8548 10.1657 4.99411 10.4452 4.99323H14.1676C15.0885 4.99323 15.835 5.73973 15.835 6.66059V7.49427" stroke="#FCFCFD" stroke-width="1.25" stroke-linecap="round" stroke-linejoin="round"/>
<path d="M13.7517 18.3314C12.2343 18.3314 10.8664 17.4173 10.2857 16.0155C9.70501 14.6136 10.026 13 11.0989 11.927C12.1719 10.8541 13.7855 10.5331 15.1873 11.1138C16.5892 11.6945 17.5032 13.0624 17.5032 14.5798C17.5032 16.6517 15.8236 18.3314 13.7517 18.3314" stroke="#FCFCFD" stroke-width="1.25" stroke-linecap="round" stroke-linejoin="round"/>
<path d="M10.2151 15.8309H3.45312" stroke="#FCFCFD" stroke-width="1.25" stroke-linecap="round" stroke-linejoin="round"/>
<path d="M12.8672 13.6953L14.6363 15.4644" stroke="#FCFCFD" stroke-width="1.25" stroke-linecap="round" stroke-linejoin="round"/>
<path d="M12.8672 15.4644L14.6363 13.6953" stroke="#FCFCFD" stroke-width="1.25" stroke-linecap="round" stroke-linejoin="round"/>
</svg>
