<svg width="20" height="20" viewBox="0 0 20 20" fill="none" xmlns="http://www.w3.org/2000/svg">
<path d="M8.33398 10.0051C9.25482 8.89427 10.7465 8.89427 11.6673 10.0051" stroke="#323232" stroke-width="1.5" stroke-linecap="round" stroke-linejoin="round"/>
<path d="M7.35832 7.64038C8.66007 8.94213 8.66007 11.0527 7.35832 12.3544C6.05657 13.6562 3.94602 13.6562 2.64428 12.3544C1.34253 11.0527 1.34253 8.94212 2.64428 7.64038C3.94603 6.33862 6.05658 6.33862 7.35832 7.64038" stroke="#323232" stroke-width="1.5" stroke-linecap="round" stroke-linejoin="round"/>
<path d="M17.3583 7.64038C18.6601 8.94213 18.6601 11.0527 17.3583 12.3544C16.0566 13.6562 13.946 13.6562 12.6443 12.3544C11.3425 11.0527 11.3425 8.94212 12.6443 7.64038C13.946 6.33862 16.0566 6.33862 17.3583 7.64038" stroke="#323232" stroke-width="1.5" stroke-linecap="round" stroke-linejoin="round"/>
<path d="M1.66732 9.99479H0.833984" stroke="#323232" stroke-width="1.5" stroke-linecap="round" stroke-linejoin="round"/>
<path d="M19.1673 9.99479H18.334" stroke="#323232" stroke-width="1.5" stroke-linecap="round" stroke-linejoin="round"/>
</svg>
