<svg width="20" height="20" viewBox="0 0 20 20" fill="none" xmlns="http://www.w3.org/2000/svg">
<path d="M19.9987 10.2242C19.9987 9.40197 19.9306 8.80193 19.7833 8.17969H10.2031V11.891H15.8265C15.7132 12.8133 15.1009 14.2022 13.7404 15.1356L13.7213 15.2598L16.7504 17.5597L16.9603 17.5802C18.8876 15.8356 19.9987 13.2688 19.9987 10.2242Z" fill="#4285F4"/>
<path d="M10.2091 19.9992C12.9641 19.9992 15.2769 19.1102 16.9663 17.5769L13.7464 15.1322C12.8848 15.7212 11.7283 16.1323 10.2091 16.1323C7.51082 16.1323 5.22066 14.3878 4.40428 11.9766L4.28462 11.9865L1.13494 14.3755L1.09375 14.4878C2.77168 17.7546 6.21829 19.9992 10.2091 19.9992Z" fill="#34A853"/>
<path d="M4.39891 11.9845C4.1835 11.3622 4.05883 10.6955 4.05883 10.0066C4.05883 9.3176 4.1835 8.65092 4.38757 8.02867L4.38187 7.89615L1.19272 5.46875L1.08837 5.51739C0.396817 6.87304 0 8.39537 0 10.0066C0 11.6178 0.396817 13.14 1.08837 14.4957L4.39891 11.9845Z" fill="#FBBC05"/>
<path d="M10.2091 3.86684C12.1251 3.86684 13.4176 4.67799 14.1545 5.35585L17.0343 2.60014C15.2657 0.988945 12.9641 0 10.2091 0C6.21829 0 2.77168 2.24455 1.09375 5.51136L4.39295 8.02264C5.22066 5.6114 7.51082 3.86684 10.2091 3.86684Z" fill="#EB4335"/>
</svg>
