<svg width="20" height="20" viewBox="0 0 20 20" fill="none" xmlns="http://www.w3.org/2000/svg">
<path d="M10.9764 12.8936C11.1134 11.8937 11.8935 11.1136 12.8934 10.9767C13.4669 10.8981 14.0898 10.8333 14.583 10.8333C15.0762 10.8333 15.6991 10.8981 16.2726 10.9767C17.2726 11.1136 18.0527 11.8937 18.1896 12.8936C18.2681 13.4671 18.333 14.0901 18.333 14.5833C18.333 15.0765 18.2681 15.6994 18.1896 16.2729C18.0527 17.2728 17.2726 18.0529 16.2726 18.1898C15.6991 18.2684 15.0762 18.3333 14.583 18.3333C14.0898 18.3333 13.4669 18.2684 12.8934 18.1898C11.8935 18.0529 11.1134 17.2728 10.9764 16.2729C10.8979 15.6994 10.833 15.0765 10.833 14.5833C10.833 14.0901 10.8979 13.4671 10.9764 12.8936Z" fill="#777E91"/>
<path d="M1.8104 12.8936C1.94734 11.8937 2.72744 11.1136 3.72736 10.9767C4.30086 10.8981 4.92379 10.8333 5.41699 10.8333C5.91019 10.8333 6.53312 10.8981 7.10663 10.9767C8.10655 11.1136 8.88664 11.8937 9.02358 12.8936C9.10213 13.4671 9.16699 14.0901 9.16699 14.5833C9.16699 15.0765 9.10213 15.6994 9.02358 16.2729C8.88664 17.2728 8.10655 18.0529 7.10663 18.1898C6.53312 18.2684 5.91019 18.3333 5.41699 18.3333C4.92379 18.3333 4.30086 18.2684 3.72736 18.1898C2.72744 18.0529 1.94734 17.2728 1.8104 16.2729C1.73186 15.6994 1.66699 15.0765 1.66699 14.5833C1.66699 14.0901 1.73186 13.4671 1.8104 12.8936Z" fill="#777E91"/>
<path d="M10.9764 3.72711C11.1134 2.72719 11.8935 1.9471 12.8934 1.81016C13.4669 1.73161 14.0898 1.66675 14.583 1.66675C15.0762 1.66675 15.6991 1.73161 16.2726 1.81016C17.2726 1.9471 18.0527 2.72719 18.1896 3.72711C18.2681 4.30062 18.333 4.92355 18.333 5.41675C18.333 5.90995 18.2681 6.53288 18.1896 7.10638C18.0527 8.1063 17.2726 8.8864 16.2726 9.02334C15.6991 9.10188 15.0762 9.16675 14.583 9.16675C14.0898 9.16675 13.4669 9.10188 12.8934 9.02334C11.8935 8.8864 11.1134 8.1063 10.9764 7.10638C10.8979 6.53288 10.833 5.90995 10.833 5.41675C10.833 4.92355 10.8979 4.30062 10.9764 3.72711Z" fill="#777E91"/>
<path d="M1.8104 3.72711C1.94734 2.72719 2.72744 1.9471 3.72736 1.81016C4.30086 1.73161 4.92379 1.66675 5.41699 1.66675C5.91019 1.66675 6.53312 1.73161 7.10663 1.81016C8.10655 1.9471 8.88664 2.72719 9.02358 3.72711C9.10213 4.30062 9.16699 4.92355 9.16699 5.41675C9.16699 5.90995 9.10213 6.53288 9.02358 7.10638C8.88664 8.1063 8.10655 8.8864 7.10663 9.02334C6.53312 9.10188 5.91019 9.16675 5.41699 9.16675C4.92379 9.16675 4.30086 9.10188 3.72736 9.02334C2.72744 8.8864 1.94734 8.1063 1.8104 7.10638C1.73186 6.53288 1.66699 5.90995 1.66699 5.41675C1.66699 4.92355 1.73186 4.30062 1.8104 3.72711Z" fill="#777E91"/>
</svg>
