<svg width="20" height="20" viewBox="0 0 20 20" fill="none" xmlns="http://www.w3.org/2000/svg">
<path d="M16.2646 1.88515C17.2701 1.97211 18.0531 2.72719 18.1901 3.72711C18.2686 4.30062 18.3335 4.92355 18.3335 5.41675C18.3335 5.90995 18.2686 6.53288 18.1901 7.10638C18.0531 8.1063 17.2701 8.86138 16.2646 8.94834C15.0226 9.05576 13.0109 9.16675 10.0002 9.16675C6.98945 9.16675 4.97767 9.05576 3.73568 8.94834C2.73018 8.86138 1.94718 8.1063 1.81024 7.10638C1.73169 6.53288 1.66683 5.90995 1.66683 5.41675C1.66683 4.92355 1.7317 4.30062 1.81024 3.72711C1.94718 2.72719 2.73019 1.97211 3.73569 1.88515C4.97768 1.77774 6.98945 1.66675 10.0002 1.66675C13.0109 1.66675 15.0227 1.77774 16.2646 1.88515Z" fill="#45B36B"/>
<path d="M16.2646 11.0517C17.2701 11.1386 18.0531 11.8937 18.1901 12.8936C18.2686 13.4671 18.3335 14.0901 18.3335 14.5833C18.3335 15.0765 18.2686 15.6994 18.1901 16.2729C18.0531 17.2728 17.2701 18.0279 16.2646 18.1148C15.0226 18.2223 13.0109 18.3333 10.0002 18.3333C6.98945 18.3333 4.97767 18.2223 3.73568 18.1148C2.73018 18.0279 1.94718 17.2728 1.81024 16.2729C1.73169 15.6994 1.66683 15.0765 1.66683 14.5833C1.66683 14.0901 1.7317 13.4671 1.81024 12.8936C1.94718 11.8937 2.73019 11.1386 3.73569 11.0517C4.97768 10.9442 6.98945 10.8333 10.0002 10.8333C13.0109 10.8333 15.0227 10.9442 16.2646 11.0517Z" fill="#45B36B"/>
</svg>
