<svg width="20" height="20" viewBox="0 0 20 20" fill="none" xmlns="http://www.w3.org/2000/svg">
<path d="M8.33203 9.9974V2.91406C8.33203 2.22406 8.89203 1.66406 9.58203 1.66406V1.66406C10.272 1.66406 10.832 2.22406 10.832 2.91406V9.9974" stroke="#FCFCFD" stroke-width="1.25" stroke-linecap="round" stroke-linejoin="round"/>
<path d="M8.33203 4.58594C8.33203 3.89594 7.77203 3.33594 7.08203 3.33594V3.33594C6.39203 3.33594 5.83203 3.89594 5.83203 4.58594V10.0026" stroke="#FCFCFD" stroke-width="1.25" stroke-linecap="round" stroke-linejoin="round"/>
<path d="M10.832 4.58594C10.832 3.89594 11.392 3.33594 12.082 3.33594V3.33594C12.772 3.33594 13.332 3.89594 13.332 4.58594V9.16927V11.6693L14.9162 10.0851C15.422 9.57927 16.242 9.57927 16.7479 10.0851V10.0851C17.1845 10.5218 17.252 11.2059 16.9095 11.7193L13.9829 16.1093C13.0554 17.5001 11.4945 18.3359 9.82286 18.3359H8.33203C5.57036 18.3359 3.33203 16.0976 3.33203 13.3359V9.16927V6.2526C3.33203 5.5626 3.89203 5.0026 4.58203 5.0026V5.0026C5.27203 5.0026 5.83203 5.5626 5.83203 6.2526" stroke="#FCFCFD" stroke-width="1.25" stroke-linecap="round" stroke-linejoin="round"/>
</svg>
