<svg width="18" height="17" viewBox="0 0 18 17" fill="none" xmlns="http://www.w3.org/2000/svg">
<path d="M10.7061 9.0398C10.2797 9.75871 9.45159 10.137 8.62903 9.98868C7.80646 9.84033 7.16266 9.19652 7.0143 8.37396C6.86595 7.5514 7.24428 6.72324 7.96319 6.29688" stroke="#323232" stroke-linecap="round" stroke-linejoin="round"/>
<path d="M12.9983 11.3323C11.8484 12.2045 10.4437 12.6746 9.00054 12.6702C6.60914 12.7127 4.39957 11.3985 3.29549 9.27676C2.8989 8.47288 2.8989 7.53024 3.29549 6.72636C3.84766 5.62678 4.72786 4.72594 5.81436 4.14844" stroke="#323232" stroke-linecap="round" stroke-linejoin="round"/>
<path d="M14.6185 9.42855C14.6453 9.37787 14.6801 9.3324 14.7054 9.28074C15.102 8.47687 15.102 7.53423 14.7054 6.73035C13.6013 4.60863 11.3917 3.29435 9.00031 3.33694C8.85038 3.33694 8.70465 3.35695 8.55664 3.3667" stroke="#323232" stroke-linecap="round" stroke-linejoin="round"/>
<path d="M15.0021 13.3381L3.66406 2" stroke="#323232" stroke-linecap="round" stroke-linejoin="round"/>
</svg>
