<svg width="14" height="14" viewBox="0 0 14 14" fill="none" xmlns="http://www.w3.org/2000/svg">
<path d="M4.84928 4.52574C4.93789 4.61436 4.93789 4.75804 4.84928 4.84665C4.76066 4.93527 4.61698 4.93527 4.52837 4.84665C4.43975 4.75804 4.43975 4.61436 4.52837 4.52574C4.61698 4.43713 4.76066 4.43713 4.84928 4.52574" stroke="#353945" stroke-linecap="round" stroke-linejoin="round"/>
<path fill-rule="evenodd" clip-rule="evenodd" d="M4.22567 1.76463L5.88758 1.75005C6.19733 1.74713 6.49542 1.86963 6.71475 2.08838L11.9088 7.28472C12.3643 7.7403 12.3643 8.47938 11.9088 8.93497L8.93725 11.9082C8.48167 12.3644 7.742 12.3644 7.28642 11.9082L2.08833 6.70838C1.87192 6.49197 1.75 6.19797 1.75 5.89113V4.2508C1.75 3.94397 1.87192 3.64997 2.08833 3.43355L3.41833 2.10297C3.633 1.8883 3.92292 1.76697 4.22567 1.76463Z" stroke="#353945" stroke-linecap="round" stroke-linejoin="round"/>
</svg>
