<svg width="22" height="22" viewBox="0 0 22 22" fill="none" xmlns="http://www.w3.org/2000/svg">
<path d="M8.84909 8.52574C8.93771 8.61436 8.93771 8.75804 8.84909 8.84665C8.76048 8.93527 8.6168 8.93527 8.52819 8.84665C8.43957 8.75804 8.43957 8.61436 8.52819 8.52574C8.6168 8.43713 8.76048 8.43713 8.84909 8.52574" stroke="#777E90" stroke-width="1.125" stroke-linecap="round" stroke-linejoin="round"/>
<path fill-rule="evenodd" clip-rule="evenodd" d="M8.22567 5.76512L9.88758 5.75054C10.1973 5.74762 10.4954 5.87012 10.7147 6.08887L15.9088 11.2852C16.3643 11.7408 16.3643 12.4799 15.9088 12.9355L12.9372 15.9087C12.4817 16.3649 11.742 16.3649 11.2864 15.9087L6.08833 10.7089C5.87192 10.4925 5.75 10.1985 5.75 9.89162V8.25129C5.75 7.94446 5.87192 7.65046 6.08833 7.43404L7.41833 6.10346C7.633 5.88879 7.92292 5.76746 8.22567 5.76512Z" stroke="#777E90" stroke-width="1.125" stroke-linecap="round" stroke-linejoin="round"/>
<circle cx="11" cy="11" r="10.6" stroke="#B1B5C3" stroke-width="0.8" stroke-linejoin="round" stroke-dasharray="3 3"/>
</svg>
