<svg width="66" height="66" viewBox="0 0 66 66" fill="none" xmlns="http://www.w3.org/2000/svg">
<path d="M38.3984 46.1172V52.3198C38.3982 53.6835 39.1687 54.9302 40.3886 55.5398L41.7812 56.2361C43.8083 57.2491 46.194 57.2491 48.2212 56.2361L49.6138 55.5398C50.8337 54.9302 51.6042 53.6835 51.6039 52.3198V46.1172" stroke="#45B36B" stroke-width="3.2" stroke-linecap="round" stroke-linejoin="round"/>
<path fill-rule="evenodd" clip-rule="evenodd" d="M34.09 43.9768L42.3254 48.0905C44.0103 48.931 45.9921 48.931 47.677 48.0905L55.9044 43.9768C56.5806 43.6396 57.008 42.949 57.008 42.1934C57.008 41.4378 56.5806 40.7472 55.9044 40.41L47.661 36.2963C45.9767 35.4533 43.9937 35.4533 42.3094 36.2963L34.082 40.41C33.4065 40.7487 32.9807 41.4403 32.9824 42.1959C32.9841 42.9515 33.413 43.6412 34.09 43.9768Z" stroke="#45B36B" stroke-width="3.2" stroke-linecap="round" stroke-linejoin="round"/>
<path d="M56.9999 42.1875V46.9895" stroke="#45B36B" stroke-width="3.2" stroke-linecap="round" stroke-linejoin="round"/>
<path d="M44.9999 6.32031V12.3228" stroke="#45B36B" stroke-width="3.2" stroke-linecap="round" stroke-linejoin="round"/>
<path d="M20.9823 6.32031V12.3228" stroke="#45B36B" stroke-width="3.2" stroke-linecap="round" stroke-linejoin="round"/>
<path d="M8.98242 24.3183H57.0024" stroke="#45B36B" stroke-width="3.2" stroke-linecap="round" stroke-linejoin="round"/>
<path d="M57.0024 30.3291V18.3241C57.0024 13.3514 52.9713 9.32031 47.9987 9.32031H17.9862C13.0135 9.32031 8.98242 13.3514 8.98242 18.3241V45.3353C8.98242 50.308 13.0135 54.3391 17.9862 54.3391H30.3246" stroke="#45B36B" stroke-width="3.2" stroke-linecap="round" stroke-linejoin="round"/>
</svg>
