<svg width="16" height="15" viewBox="0 0 16 15" fill="none" xmlns="http://www.w3.org/2000/svg">
<path d="M9.23941 11.0657L8.38914 11.9159C7.80115 12.5044 7.0034 12.835 6.17155 12.835C5.33969 12.835 4.54195 12.5044 3.95396 11.9159V11.9159C3.36567 11.3279 3.03516 10.5301 3.03516 9.69834C3.03516 8.86653 3.36567 8.06881 3.95396 7.48075L4.80656 6.63281" stroke="#323232" stroke-width="1.16667" stroke-linecap="round" stroke-linejoin="round"/>
<path d="M6.1875 9.68651L9.81151 6.0625" stroke="#323232" stroke-width="1.16667" stroke-linecap="round" stroke-linejoin="round"/>
<path d="M6.75781 4.68386L7.60808 3.83359C8.19592 3.24487 8.99373 2.91406 9.82567 2.91406C10.6576 2.91406 11.4554 3.24487 12.0433 3.83359V3.83359C12.6317 4.42158 12.9623 5.21933 12.9623 6.05118C12.9623 6.88303 12.6317 7.68078 12.0433 8.26877L11.1907 9.11671" stroke="#323232" stroke-width="1.16667" stroke-linecap="round" stroke-linejoin="round"/>
</svg>
