<svg width="18" height="18" viewBox="0 0 18 18" fill="none" xmlns="http://www.w3.org/2000/svg">
<path fill-rule="evenodd" clip-rule="evenodd" d="M8.16667 15.16V5.25248C8.16667 4.67748 7.87083 4.14332 7.38333 3.83915L4.05 1.75582C2.94 1.06249 1.5 1.85998 1.5 3.16915V13.0758C1.5 13.6508 1.79583 14.185 2.28333 14.4891L5.61667 16.5725C6.72667 17.2666 8.16667 16.4683 8.16667 15.16Z" stroke="#777E91" stroke-width="1.5625" stroke-linecap="round" stroke-linejoin="round"/>
<path d="M11.5 8.16667H16.5" stroke="#777E91" stroke-width="1.5625" stroke-linecap="round" stroke-linejoin="round"/>
<path d="M14.8335 9.83333L16.5002 8.16667L14.8335 6.5" stroke="#777E91" stroke-width="1.5625" stroke-linecap="round" stroke-linejoin="round"/>
<path d="M8.1665 14.833H11.4998C12.4207 14.833 13.1665 14.0872 13.1665 13.1663V12.333" stroke="#777E91" stroke-width="1.5625" stroke-linecap="round" stroke-linejoin="round"/>
<path d="M13.167 4V3.16667C13.167 2.24583 12.4212 1.5 11.5003 1.5H3.16699" stroke="#777E91" stroke-width="1.5625" stroke-linecap="round" stroke-linejoin="round"/>
</svg>
