<svg width="21" height="21" viewBox="0 0 21 21" fill="none" xmlns="http://www.w3.org/2000/svg">
<path d="M3.19076 7.57552C3.65099 7.57552 4.02409 7.20243 4.02409 6.74219V4.24219C4.02409 3.78195 4.39718 3.40885 4.85742 3.40885H7.35742C7.81766 3.40885 8.19076 3.03576 8.19076 2.57552C8.19076 2.11528 7.81766 1.74219 7.35742 1.74219H4.85742C3.47671 1.74219 2.35742 2.86148 2.35742 4.24219V6.74219C2.35742 7.20243 2.73052 7.57552 3.19076 7.57552Z" fill="#FCFCFD"/>
<path d="M4.02409 13.4089C4.02409 12.9486 3.65099 12.5755 3.19076 12.5755C2.73052 12.5755 2.35742 12.9486 2.35742 13.4089V15.9089C2.35742 17.2896 3.47671 18.4089 4.85742 18.4089H7.35742C7.81766 18.4089 8.19076 18.0358 8.19076 17.5755C8.19076 17.1153 7.81766 16.7422 7.35742 16.7422H4.85742C4.39718 16.7422 4.02409 16.3691 4.02409 15.9089V13.4089Z" fill="#FCFCFD"/>
<path d="M17.3574 13.4089C17.3574 12.9486 17.7305 12.5755 18.1908 12.5755C18.651 12.5755 19.0241 12.9486 19.0241 13.4089V15.9089C19.0241 17.2896 17.9048 18.4089 16.5241 18.4089H14.0241C13.5639 18.4089 13.1908 18.0358 13.1908 17.5755C13.1908 17.1153 13.5639 16.7422 14.0241 16.7422H16.5241C16.9843 16.7422 17.3574 16.3691 17.3574 15.9089V13.4089Z" fill="#FCFCFD"/>
<path d="M17.3574 6.74219C17.3574 7.20243 17.7305 7.57552 18.1908 7.57552C18.651 7.57552 19.0241 7.20243 19.0241 6.74219V4.24219C19.0241 2.86148 17.9048 1.74219 16.5241 1.74219H14.0241C13.5639 1.74219 13.1908 2.11528 13.1908 2.57552C13.1908 3.03576 13.5639 3.40885 14.0241 3.40885H16.5241C16.9843 3.40885 17.3574 3.78195 17.3574 4.24219V6.74219Z" fill="#FCFCFD"/>
</svg>
