<svg width="14" height="12" viewBox="0 0 14 12" fill="none" xmlns="http://www.w3.org/2000/svg">
<path fill-rule="evenodd" clip-rule="evenodd" d="M1 2.52813V2.52813C1 2.92813 1.2 3.26146 1.53333 3.52813L5.53333 6.26146C6.46667 6.86146 7.6 6.86146 8.53333 6.26146L12.5333 3.59479C12.8 3.26146 13 2.92813 13 2.52813V2.52813C13 1.86146 12.4667 1.32812 11.8 1.32812H2.2C1.53333 1.32812 1 1.86146 1 2.52813Z" stroke="#353945" stroke-linecap="round" stroke-linejoin="round"/>
<path d="M1 2.66406V9.33073C1 10.0641 1.6 10.6641 2.33333 10.6641H11.6667C12.4 10.6641 13 10.0641 13 9.33073V2.66406" stroke="#353945" stroke-linecap="round" stroke-linejoin="round"/>
<path d="M1.39194 10.2736L5.4546 6.21094" stroke="#353945" stroke-linecap="round" stroke-linejoin="round"/>
<path d="M8.57358 6.23438L12.6082 10.269" stroke="#353945" stroke-linecap="round" stroke-linejoin="round"/>
</svg>
