<svg width="16" height="16" viewBox="0 0 16 16" fill="none" xmlns="http://www.w3.org/2000/svg">
<path d="M8.00059 6.24894V5.66536" stroke="#353945" stroke-linecap="round" stroke-linejoin="round"/>
<path d="M8.00059 9.75V10.3336" stroke="#353945" stroke-linecap="round" stroke-linejoin="round"/>
<path d="M6.9882 9.33268C7.13773 9.58978 7.41176 9.74898 7.70917 9.75152H8.34877C8.76248 9.75119 9.11108 9.44261 9.16162 9.032C9.21216 8.6214 8.9488 8.23749 8.54752 8.13685L7.45374 7.86207C7.05246 7.76142 6.78909 7.37752 6.83963 6.96691C6.89017 6.5563 7.23878 6.24773 7.65248 6.24739H8.29208C8.58893 6.24945 8.86269 6.40788 9.01238 6.66423" stroke="#353945" stroke-linecap="round" stroke-linejoin="round"/>
<path d="M8.00005 2.7474C10.9008 2.7474 13.2522 5.09888 13.2522 7.99958C13.2522 10.9003 10.9008 13.2518 8.00005 13.2518C5.09935 13.2518 2.74786 10.9003 2.74786 7.99958C2.74786 5.09888 5.09935 2.7474 8.00005 2.7474" stroke="#353945" stroke-linecap="round" stroke-linejoin="round"/>
<path d="M8.00005 2.7474C10.9008 2.7474 13.2522 5.09888 13.2522 7.99958C13.2522 10.9003 10.9008 13.2518 8.00005 13.2518C5.09935 13.2518 2.74786 10.9003 2.74786 7.99958C2.74786 5.09888 5.09935 2.7474 8.00005 2.7474" stroke="#353945" stroke-linecap="round" stroke-linejoin="round"/>
</svg>
