<svg width="20" height="20" viewBox="0 0 20 20" fill="none" xmlns="http://www.w3.org/2000/svg">
<path fill-rule="evenodd" clip-rule="evenodd" d="M15.2338 11.8204C15.3786 11.7502 15.5508 11.7697 15.6761 11.8706C15.8014 11.9714 15.8574 12.1355 15.8197 12.2919C15.5151 13.4859 14.895 14.576 14.0244 15.4479C12.7682 16.7376 11.0512 17.4753 9.25099 17.4989C7.45083 17.5225 5.71504 16.8299 4.42555 15.5736C1.81013 12.8868 1.86683 8.58885 4.55222 5.97199C5.41949 5.10523 6.50318 4.48669 7.69055 4.18074C7.85006 4.14235 8.0174 4.19936 8.1203 4.32715C8.2232 4.45493 8.24321 4.63059 8.17168 4.77824C7.19887 6.80529 7.5948 9.22406 9.16315 10.8351C10.7775 12.4088 13.2046 12.8027 15.2338 11.8204Z" stroke="#353945" stroke-width="1.5625" stroke-linecap="round" stroke-linejoin="round"/>
<path fill-rule="evenodd" clip-rule="evenodd" d="M14.4495 2.82639C14.5596 2.62515 14.7706 2.5 15 2.5C15.2294 2.5 15.4404 2.62515 15.5505 2.82639L16.0365 3.71506C16.0938 3.81995 16.1801 3.90618 16.2849 3.96354L17.1736 4.44953C17.3748 4.55957 17.5 4.77065 17.5 5.00001C17.5 5.22936 17.3748 5.44044 17.1736 5.55048L16.2849 6.03647C16.1801 6.09382 16.0938 6.18006 16.0365 6.28495L15.5505 7.17363C15.4404 7.37486 15.2294 7.50001 15 7.50001C14.7706 7.50001 14.5596 7.37486 14.4495 7.17363L13.9635 6.28495C13.9062 6.18007 13.8199 6.09383 13.7151 6.03647L12.8264 5.55048C12.6251 5.44044 12.5 5.22936 12.5 5.00001C12.5 4.77065 12.6251 4.55957 12.8264 4.44953L13.7151 3.96354C13.8199 3.90618 13.9062 3.81995 13.9635 3.71506L14.4495 2.82639Z" stroke="#353945" stroke-width="1.5625" stroke-linecap="round" stroke-linejoin="round"/>
</svg>
