<svg width="18" height="17" viewBox="0 0 18 17" fill="none" xmlns="http://www.w3.org/2000/svg">
<path d="M13.3351 8.00535C13.3351 8.18952 13.1858 8.33882 13.0016 8.33882C12.8175 8.33882 12.6682 8.18952 12.6682 8.00535C12.6682 7.82118 12.8175 7.67188 13.0016 7.67188C13.1858 7.67188 13.3351 7.82118 13.3351 8.00535" stroke="#23262F" stroke-width="1.5" stroke-linecap="round" stroke-linejoin="round"/>
<path d="M9.33345 8.00535C9.33345 8.18952 9.18415 8.33882 8.99998 8.33882C8.8158 8.33882 8.6665 8.18952 8.6665 8.00535C8.6665 7.82118 8.8158 7.67188 8.99998 7.67188C9.18415 7.67188 9.33345 7.82118 9.33345 8.00535" stroke="#23262F" stroke-width="1.5" stroke-linecap="round" stroke-linejoin="round"/>
<path d="M5.3318 8.00535C5.3318 8.18952 5.1825 8.33882 4.99833 8.33882C4.81416 8.33882 4.66486 8.18952 4.66486 8.00535C4.66486 7.82118 4.81416 7.67188 4.99833 7.67188C5.1825 7.67188 5.3318 7.82118 5.3318 8.00535" stroke="#23262F" stroke-width="1.5" stroke-linecap="round" stroke-linejoin="round"/>
</svg>
