<svg width="18" height="18" viewBox="0 0 18 18" fill="none" xmlns="http://www.w3.org/2000/svg">
<path fill-rule="evenodd" clip-rule="evenodd" d="M7.5979 10.4086C6.7204 9.53106 6.0589 8.54856 5.6194 7.55181C5.52715 7.34106 5.58115 7.09431 5.7439 6.93156L6.35815 6.31731C6.8614 5.81406 6.8614 5.10231 6.4219 4.66281L5.54215 3.78306C4.9564 3.19731 4.0069 3.19731 3.42115 3.78306L2.93215 4.27131C2.3764 4.82706 2.14465 5.62881 2.29465 6.42381C2.66515 8.38356 3.80365 10.5293 5.6404 12.3661C7.47715 14.2028 9.6229 15.3413 11.5827 15.7118C12.3777 15.8618 13.1794 15.6301 13.7352 15.0743L14.2234 14.5861C14.8092 14.0003 14.8092 13.0508 14.2234 12.4651L13.3437 11.5853C12.9042 11.1458 12.1917 11.1458 11.7529 11.5853L11.0757 12.2633C10.9129 12.4261 10.6662 12.4808 10.4554 12.3878C9.45865 11.9476 8.4754 11.2853 7.5979 10.4086Z" fill="#EF466F"/>
<path d="M15.7495 6.75V2.25H11.2495" stroke="#EF466F" stroke-width="1.125" stroke-linecap="round" stroke-linejoin="round"/>
<path d="M11.2495 6.75L15.7495 2.25" stroke="#EF466F" stroke-width="1.125" stroke-linecap="round" stroke-linejoin="round"/>
</svg>
