<svg width="14" height="14" viewBox="0 0 14 14" fill="none" xmlns="http://www.w3.org/2000/svg">
<path fill-rule="evenodd" clip-rule="evenodd" d="M7.66733 7.66673C8.34983 6.98423 8.86433 6.22006 9.20616 5.44481C9.2785 5.2809 9.23591 5.08898 9.10933 4.9624L8.63158 4.48523C8.24016 4.09381 8.24016 3.54023 8.582 3.1984L9.26683 2.51356C9.72241 2.05798 10.4609 2.05798 10.9165 2.51356L11.2968 2.8939C11.7291 3.32615 11.9093 3.94973 11.7927 4.56806C11.5045 6.09231 10.619 7.76123 9.19041 9.18981C7.76183 10.6184 6.09291 11.5039 4.56866 11.7921C3.95033 11.9087 3.32675 11.7285 2.8945 11.2962L2.51475 10.9165C2.05916 10.4609 2.05916 9.7224 2.51475 9.26681L3.199 8.58256C3.54083 8.24073 4.095 8.24073 4.43625 8.58256L4.963 9.1099C5.08958 9.23648 5.2815 9.27906 5.44541 9.20673C6.22066 8.86431 6.98483 8.34923 7.66733 7.66673Z" stroke="#353945" stroke-linecap="round" stroke-linejoin="round"/>
</svg>
