<svg width="18" height="18" viewBox="0 0 18 18" fill="none" xmlns="http://www.w3.org/2000/svg">
<path fill-rule="evenodd" clip-rule="evenodd" d="M7.59839 10.4027C6.72089 9.5252 6.05939 8.5427 5.61989 7.54595C5.52764 7.3352 5.58164 7.08845 5.74439 6.9257L6.35864 6.31145C6.86189 5.8082 6.86189 5.09645 6.42239 4.65695L5.54264 3.7772C4.95689 3.19145 4.00739 3.19145 3.42164 3.7772L2.93264 4.26545C2.37689 4.8212 2.14514 5.62295 2.29514 6.41795C2.66564 8.3777 3.80414 10.5235 5.64089 12.3602C7.47764 14.197 9.62339 15.3355 11.5831 15.706C12.3781 15.856 13.1799 15.6242 13.7356 15.0685L14.2239 14.5802C14.8096 13.9945 14.8096 13.045 14.2239 12.4592L13.3441 11.5795C12.9046 11.14 12.1921 11.14 11.7534 11.5795L11.0761 12.2575C10.9134 12.4202 10.6666 12.475 10.4559 12.382C9.45914 11.9417 8.47589 11.2795 7.59839 10.4027Z" fill="#FCFCFD"/>
<path d="M15.75 4.5H11.25" stroke="#FCFCFD" stroke-width="1.5" stroke-linecap="round" stroke-linejoin="round"/>
<path d="M13.5 6.75V2.25" stroke="#FCFCFD" stroke-width="1.5" stroke-linecap="round" stroke-linejoin="round"/>
</svg>
