<svg width="12" height="12" viewBox="0 0 12 12" fill="none" xmlns="http://www.w3.org/2000/svg">
<path fill-rule="evenodd" clip-rule="evenodd" d="M5.23727 6.76421C4.45727 5.98421 3.86927 5.11088 3.4786 4.22488C3.39593 4.03754 3.4446 3.81821 3.58927 3.67354L4.13527 3.12821C4.5826 2.68088 4.5826 2.04821 4.19193 1.65754L3.40927 0.874875C2.8886 0.354208 2.0446 0.354208 1.52393 0.874875L1.08927 1.30954C0.595268 1.80354 0.389268 2.51621 0.522601 3.22288C0.851934 4.96488 1.86393 6.87221 3.4966 8.50488C5.12927 10.1375 7.0366 11.1495 8.7786 11.4789C9.48527 11.6122 10.1979 11.4062 10.6919 10.9122L11.1259 10.4782C11.6466 9.95754 11.6466 9.11354 11.1259 8.59288L10.3439 7.81087C9.95327 7.42021 9.31993 7.42021 8.92993 7.81087L8.32793 8.41354C8.18327 8.55821 7.96393 8.60688 7.7766 8.52421C6.8906 8.13287 6.01727 7.54421 5.23727 6.76421Z" fill="#45B36B"/>
</svg>
