<svg width="16" height="16" viewBox="0 0 16 16" fill="none" xmlns="http://www.w3.org/2000/svg">
<path d="M7.99935 13.3333V10" stroke="#777E91" stroke-width="0.875" stroke-linecap="round" stroke-linejoin="round"/>
<path fill-rule="evenodd" clip-rule="evenodd" d="M4.66 9.9974H11.34C11.7047 9.9974 12 9.70206 12 9.3374V9.3374C12 9.12406 11.8973 8.92406 11.7233 8.80006L9.66667 7.33073V5.33073L11.37 4.1954C11.5553 4.0714 11.6667 3.8634 11.6667 3.64073V3.33073C11.6667 2.96273 11.368 2.66406 11 2.66406H5C4.632 2.66406 4.33333 2.96273 4.33333 3.33073V3.64073C4.33333 3.8634 4.44467 4.07206 4.63 4.1954L6.33333 5.33073V7.33073L4.27667 8.80006C4.10267 8.92406 4 9.12406 4 9.3374V9.3374C4 9.70206 4.29533 9.9974 4.66 9.9974V9.9974Z" stroke="#777E91" stroke-width="0.875" stroke-linecap="round" stroke-linejoin="round"/>
</svg>
