<svg width="12" height="12" viewBox="0 0 12 12" fill="none" xmlns="http://www.w3.org/2000/svg">
<path fill-rule="evenodd" clip-rule="evenodd" d="M5.99996 11.8333C9.22162 11.8333 11.8333 9.22166 11.8333 6C11.8333 2.77834 9.22162 0.166667 5.99996 0.166667C2.7783 0.166667 0.166626 2.77834 0.166626 6C0.166626 9.22166 2.7783 11.8333 5.99996 11.8333ZM4.69728 4.75494C4.97615 4.91625 5.33299 4.82096 5.49431 4.54209C6.05256 3.73398 7.13166 4.81 6.24691 5.33596C6.08789 5.4305 5.87992 5.58786 5.72173 5.78063C5.57195 5.96316 5.43439 6.21418 5.41821 6.52268C5.41615 6.54262 5.4151 6.56285 5.4151 6.58333C5.4151 6.9055 5.67626 7.16667 5.99843 7.16667C6.44309 7.16667 6.52772 6.93044 6.61313 6.69206C6.66808 6.53872 6.72334 6.38448 6.87496 6.29167C7.35715 5.99649 7.74995 5.47367 7.74996 4.83333C7.74996 3.86684 6.96646 3.08333 5.99996 3.08333C5.35148 3.08333 4.78614 3.43636 4.48444 3.95791C4.32312 4.23678 4.41841 4.59362 4.69728 4.75494ZM5.4151 8.33333C5.4151 8.01117 5.67627 7.75 5.99843 7.75C6.3206 7.75 6.58176 8.01117 6.58176 8.33333C6.58176 8.6555 6.3206 8.91667 5.99843 8.91667C5.67627 8.91667 5.4151 8.6555 5.4151 8.33333Z" fill="#777E91"/>
</svg>
