<svg width="16" height="16" viewBox="0 0 16 16" fill="none" xmlns="http://www.w3.org/2000/svg">
<path fill-rule="evenodd" clip-rule="evenodd" d="M5.50988 13.1517C5.21409 13.3061 4.85624 13.2789 4.58717 13.0816C4.3181 12.8843 4.1846 12.5511 4.24294 12.2226L4.71505 9.51657L2.72739 7.61177C2.48443 7.38008 2.39539 7.02984 2.49819 6.71024C2.601 6.39064 2.87753 6.158 3.21 6.1114L5.96974 5.7169L7.21567 3.23145C7.3634 2.93337 7.66732 2.74479 8 2.74479C8.33268 2.74479 8.6366 2.93337 8.78433 3.23145L10.0303 5.7169L12.79 6.1114C13.1225 6.158 13.399 6.39064 13.5018 6.71024C13.6046 7.02984 13.5156 7.38008 13.2726 7.61177L11.285 9.51657L11.7571 12.2232C11.8154 12.5517 11.6819 12.8848 11.4128 13.0821C11.1438 13.2795 10.7859 13.3066 10.4901 13.1522L8 11.8655L5.50988 13.1517Z" stroke="#353945" stroke-linecap="round" stroke-linejoin="round"/>
</svg>
