<svg width="24" height="24" viewBox="0 0 24 24" fill="none" xmlns="http://www.w3.org/2000/svg">
<path d="M12 19.9971C14.9314 19.9973 17.6284 18.3949 19.0299 15.8203" stroke="#45B36B" stroke-width="1.5" stroke-linecap="round" stroke-linejoin="round"/>
<path d="M20.0033 11.9955C20.0033 7.5754 16.4201 3.99219 12 3.99219" stroke="#45B36B" stroke-width="1.5" stroke-linecap="round" stroke-linejoin="round"/>
<path d="M11.9987 3.99219C9.06729 3.99194 6.37032 5.59431 4.96875 8.16893" stroke="#45B36B" stroke-width="1.5" stroke-linecap="round" stroke-linejoin="round"/>
<path d="M3.99219 12C3.99219 16.4201 7.5754 20.0033 11.9955 20.0033" stroke="#45B36B" stroke-width="1.5" stroke-linecap="round" stroke-linejoin="round"/>
<path d="M4.96875 8.1709C6.71822 4.95588 10.4258 3.33738 13.9729 4.24026C17.52 5.14314 20.0026 8.33731 20.002 11.9975" stroke="#45B36B" stroke-width="1.5" stroke-linecap="round" stroke-linejoin="round"/>
<path d="M3.99219 12C3.99163 15.6602 6.47421 18.8544 10.0213 19.7572C13.5684 20.6601 17.276 19.0416 19.0254 15.8266" stroke="#45B36B" stroke-width="1.5" stroke-linecap="round" stroke-linejoin="round"/>
<path d="M8.04429 8.17029H4.50781V4.63281" stroke="#45B36B" stroke-width="1.5" stroke-linecap="round" stroke-linejoin="round"/>
<path d="M15.9531 15.8203H19.4896V19.3578" stroke="#45B36B" stroke-width="1.5" stroke-linecap="round" stroke-linejoin="round"/>
</svg>
