<svg width="20" height="20" viewBox="0 0 20 20" fill="none" xmlns="http://www.w3.org/2000/svg">
<path fill-rule="evenodd" clip-rule="evenodd" d="M10.5058 2.72586L11.7142 2.13503C12.2717 1.86253 12.9458 2.08086 13.2367 2.63003L13.8675 3.81836C14.0342 4.13169 14.3358 4.35086 14.6858 4.41253L16.0108 4.64503C16.6225 4.75253 17.0383 5.32503 16.9517 5.94003L16.7633 7.27169C16.7133 7.62336 16.8292 7.97836 17.0758 8.23336L18.0108 9.20003C18.4425 9.64586 18.4425 10.3542 18.0108 10.8009L17.0758 11.7675C16.8292 12.0225 16.7133 12.3775 16.7633 12.7292L16.9517 14.0609C17.0383 14.6759 16.6225 15.2484 16.0108 15.3559L14.6858 15.5884C14.3358 15.65 14.0342 15.8692 13.8675 16.1825L13.2367 17.3709C12.9458 17.9192 12.2725 18.1384 11.7142 17.8659L10.5058 17.275C10.1867 17.1192 9.81418 17.1192 9.49501 17.275L8.28668 17.8659C7.72918 18.1384 7.05501 17.92 6.76418 17.3709L6.13334 16.1817C5.96668 15.8684 5.66501 15.6492 5.31501 15.5875L3.99001 15.355C3.37834 15.2475 2.96251 14.675 3.04918 14.06L3.23751 12.7284C3.28751 12.3767 3.17168 12.0217 2.92501 11.7667L1.99001 10.8C1.55834 10.3542 1.55834 9.64586 1.99001 9.19919L2.92501 8.23253C3.17168 7.97753 3.28751 7.62253 3.23751 7.27086L3.05001 5.93919C2.96251 5.32503 3.37918 4.75169 3.99084 4.64503L5.31584 4.41253C5.66501 4.35086 5.96668 4.13169 6.13334 3.81836L6.76418 2.63003C7.05501 2.08169 7.72834 1.86253 8.28668 2.13503L9.49501 2.72586C9.81334 2.88169 10.1867 2.88169 10.5058 2.72586Z" stroke="#B1B5C4" stroke-width="1.25" stroke-linecap="round" stroke-linejoin="round"/>
<path d="M7.5 12.5L12.5 7.5" stroke="#B1B5C4" stroke-width="1.25" stroke-linecap="round" stroke-linejoin="round"/>
<path d="M7.70758 7.50002C7.59258 7.50002 7.49925 7.59335 7.50008 7.70835C7.50008 7.82335 7.59342 7.91669 7.70842 7.91669C7.82342 7.91669 7.91675 7.82335 7.91675 7.70835C7.91675 7.59335 7.82342 7.50002 7.70758 7.50002" stroke="#B1B5C4" stroke-width="1.25" stroke-linecap="round" stroke-linejoin="round"/>
<path d="M12.2908 12.0833C12.1758 12.0833 12.0825 12.1767 12.0833 12.2917C12.0833 12.4067 12.1767 12.5 12.2917 12.5C12.4067 12.5 12.5 12.4067 12.5 12.2917C12.5 12.1767 12.4067 12.0833 12.2908 12.0833" stroke="#B1B5C4" stroke-width="1.25" stroke-linecap="round" stroke-linejoin="round"/>
</svg>
