<svg width="30" height="30" viewBox="0 0 30 30" fill="none" xmlns="http://www.w3.org/2000/svg">
<path fill-rule="evenodd" clip-rule="evenodd" d="M16.0017 3.73438C16.5293 3.73438 17.0001 4.06566 17.1785 4.56222L17.8137 6.33171C17.9146 6.60996 18.1103 6.84376 18.3665 6.99198L20.251 8.07993C20.5069 8.22759 20.8068 8.27986 21.0976 8.2275L22.9484 7.89361C23.4681 7.79911 23.9911 8.04136 24.2552 8.49886L25.2556 10.2246C25.5203 10.6808 25.4703 11.2542 25.1305 11.6577L23.9163 13.0933C23.725 13.319 23.62 13.6052 23.6199 13.9011V16.077C23.62 16.3729 23.725 16.6591 23.9163 16.8849L25.1305 18.3205C25.4703 18.724 25.5203 19.2973 25.2556 19.7535L24.2552 21.4793C23.9913 21.9363 23.4689 22.1784 22.9496 22.0845L21.0989 21.7506C20.8081 21.6983 20.5082 21.7505 20.2522 21.8982L18.3677 22.9861C18.1115 23.1344 17.9158 23.3682 17.815 23.6464L17.1797 25.4159C17.0012 25.9129 16.5298 26.2442 16.0017 26.2437H14.0009C13.4733 26.2437 13.0025 25.9125 12.8242 25.4159L12.1889 23.6464C12.0881 23.3685 11.8929 23.1348 11.6374 22.9861L9.75163 21.8982C9.49572 21.7505 9.19579 21.6983 8.90502 21.7506L7.05425 22.0845C6.53454 22.179 6.0115 21.9368 5.74746 21.4793L4.74704 19.7535C4.48229 19.2973 4.53232 18.724 4.87209 18.3205L6.08635 16.8849C6.27759 16.6591 6.3826 16.3729 6.38272 16.077V13.9011C6.3826 13.6052 6.27759 13.319 6.08635 13.0933L4.8846 11.6577C4.54482 11.2542 4.49479 10.6808 4.75955 10.2246L5.75996 8.49886C6.02384 8.04185 6.54621 7.79968 7.06551 7.89361L8.91628 8.2275C9.20705 8.27986 9.50697 8.22759 9.76288 8.07993L11.6487 6.99198C11.9042 6.84329 12.0993 6.6096 12.2001 6.33171L12.8354 4.56222C13.0123 4.06952 13.4774 3.73917 14.0009 3.73438H16.0017Z" stroke="#B1B5C4" stroke-width="1.875" stroke-linecap="round" stroke-linejoin="round"/>
<circle cx="14.9975" cy="14.9858" r="3.43893" stroke="#B1B5C4" stroke-width="1.875" stroke-linecap="round" stroke-linejoin="round"/>
</svg>
