<svg width="14" height="14" viewBox="0 0 14 14" fill="none" xmlns="http://www.w3.org/2000/svg">
<path d="M0.333328 1.66927C0.333328 0.932892 0.930282 0.335938 1.66666 0.335938H3.33333C3.51742 0.335938 3.66666 0.485176 3.66666 0.669271V3.33594C3.66666 3.52003 3.51742 3.66927 3.33333 3.66927H0.666662C0.482567 3.66927 0.333328 3.52003 0.333328 3.33594V1.66927Z" fill="#777E91"/>
<path d="M0.333328 5.33594C0.333328 5.15184 0.482567 5.0026 0.666662 5.0026H3.33333C3.51742 5.0026 3.66666 5.15184 3.66666 5.33594V8.66927C3.66666 8.85336 3.51742 9.0026 3.33333 9.0026H0.666662C0.482567 9.0026 0.333328 8.85336 0.333328 8.66927V5.33594Z" fill="#777E91"/>
<path d="M0.666662 10.3359C0.482567 10.3359 0.333328 10.4852 0.333328 10.6693V12.3359C0.333328 13.0723 0.930282 13.6693 1.66666 13.6693H3.33333C3.51742 13.6693 3.66666 13.52 3.66666 13.3359V10.6693C3.66666 10.4852 3.51742 10.3359 3.33333 10.3359H0.666662Z" fill="#777E91"/>
<path d="M5.33333 10.3359C5.14923 10.3359 5 10.4852 5 10.6693V13.3359C5 13.52 5.14923 13.6693 5.33333 13.6693H8.66666C8.85076 13.6693 9 13.52 9 13.3359V10.6693C9 10.4852 8.85076 10.3359 8.66666 10.3359H5.33333Z" fill="#777E91"/>
<path d="M10.6667 10.3359C10.4826 10.3359 10.3333 10.4852 10.3333 10.6693V13.3359C10.3333 13.52 10.4826 13.6693 10.6667 13.6693H12.3333C13.0697 13.6693 13.6667 13.0723 13.6667 12.3359V10.6693C13.6667 10.4852 13.5174 10.3359 13.3333 10.3359H10.6667Z" fill="#777E91"/>
<path d="M13.6667 8.66927C13.6667 8.85337 13.5174 9.0026 13.3333 9.0026H10.6667C10.4826 9.0026 10.3333 8.85337 10.3333 8.66927V5.33594C10.3333 5.15184 10.4826 5.0026 10.6667 5.0026H13.3333C13.5174 5.0026 13.6667 5.15184 13.6667 5.33594V8.66927Z" fill="#777E91"/>
<path d="M9 8.66927C9 8.85337 8.85076 9.0026 8.66666 9.0026L5.33333 9.0026C5.14923 9.0026 5 8.85336 5 8.66927V5.33594C5 5.15184 5.14923 5.0026 5.33333 5.0026H8.66666C8.85076 5.0026 9 5.15184 9 5.33594V8.66927Z" fill="#777E91"/>
<path d="M5 3.33594C5 3.52003 5.14923 3.66927 5.33333 3.66927H8.66666C8.85076 3.66927 9 3.52003 9 3.33594V0.669271C9 0.485176 8.85076 0.335938 8.66666 0.335938H5.33333C5.14923 0.335938 5 0.485176 5 0.669271V3.33594Z" fill="#777E91"/>
<path d="M10.3333 3.33594C10.3333 3.52003 10.4826 3.66927 10.6667 3.66927H13.3333C13.5174 3.66927 13.6667 3.52003 13.6667 3.33594V1.66927C13.6667 0.932891 13.0697 0.335938 12.3333 0.335938H10.6667C10.4826 0.335938 10.3333 0.485176 10.3333 0.669271V3.33594Z" fill="#777E91"/>
</svg>
