<svg width="45" height="87" viewBox="0 0 45 87" fill="none" xmlns="http://www.w3.org/2000/svg">
<path fill-rule="evenodd" clip-rule="evenodd" d="M22.5 -0.75C22.5 -1.99264 21.4926 -3 20.25 -3C19.0074 -3 18 -1.99264 18 -0.749999V15.2543C18 20.6048 13.9929 24.9871 9.60991 28.056C3.79943 32.1243 0 38.8685 0 46.5C0 54.4532 4.1265 61.4427 10.3553 65.4441C14.4175 68.0537 18 72.0199 18 76.8481V84.75C18 85.9926 19.0074 87 20.25 87C21.4926 87 22.5 85.9926 22.5 84.75V78C22.5 73.0294 26.6863 69.167 31.2637 67.2294C39.3362 63.8124 45 55.8176 45 46.5C45 37.9827 40.2674 30.5707 33.2884 26.7503C27.8384 23.7669 22.5 18.9632 22.5 12.75V-0.75Z" fill="#23262F"/>
</svg>
