<svg width="16" height="15" viewBox="0 0 16 15" fill="none" xmlns="http://www.w3.org/2000/svg">
<path d="M7.99938 5C7.91313 5 7.84313 5.07 7.84375 5.15625C7.84375 5.2425 7.91375 5.3125 8 5.3125C8.08625 5.3125 8.15625 5.2425 8.15625 5.15625C8.15625 5.07 8.08625 5 7.99938 5" stroke="#EF466F" stroke-width="1.125" stroke-linecap="round" stroke-linejoin="round"/>
<path fill-rule="evenodd" clip-rule="evenodd" d="M8 13.125V13.125C4.89312 13.125 2.375 10.6069 2.375 7.5V7.5C2.375 4.39312 4.89312 1.875 8 1.875V1.875C11.1069 1.875 13.625 4.39312 13.625 7.5V7.5C13.625 10.6069 11.1069 13.125 8 13.125Z" stroke="#EF466F" stroke-width="1.125" stroke-linecap="round" stroke-linejoin="round"/>
<path d="M8 7.5V10.625" stroke="#EF466F" stroke-width="1.125" stroke-linecap="round" stroke-linejoin="round"/>
</svg>
