<svg width="18" height="18" viewBox="0 0 18 18" fill="none" xmlns="http://www.w3.org/2000/svg">
<path fill-rule="evenodd" clip-rule="evenodd" d="M14.25 12.75H13.5C13.086 12.75 12.75 12.414 12.75 12V8.25C12.75 7.836 13.086 7.5 13.5 7.5H14.25C15.0788 7.5 15.75 8.17125 15.75 9V11.25C15.75 12.0788 15.0788 12.75 14.25 12.75Z" stroke="#FCFCFD" stroke-width="1.125" stroke-linecap="round" stroke-linejoin="round"/>
<path fill-rule="evenodd" clip-rule="evenodd" d="M4.5 12.75H3.75C2.92125 12.75 2.25 12.0788 2.25 11.25V9C2.25 8.17125 2.92125 7.5 3.75 7.5H4.5C4.914 7.5 5.25 7.836 5.25 8.25V12C5.25 12.414 4.914 12.75 4.5 12.75Z" stroke="#FCFCFD" stroke-width="1.125" stroke-linecap="round" stroke-linejoin="round"/>
<path d="M13.875 7.5V7.125C13.875 4.4325 11.6925 2.25 9 2.25V2.25C6.3075 2.25 4.125 4.4325 4.125 7.125V7.5" stroke="#FCFCFD" stroke-width="1.125" stroke-linecap="round" stroke-linejoin="round"/>
<path fill-rule="evenodd" clip-rule="evenodd" d="M9.46875 15.9375H8.53125C8.01375 15.9375 7.59375 15.5175 7.59375 15V15C7.59375 14.4825 8.01375 14.0625 8.53125 14.0625H9.46875C9.98625 14.0625 10.4062 14.4825 10.4062 15V15C10.4062 15.5175 9.98625 15.9375 9.46875 15.9375Z" stroke="#FCFCFD" stroke-width="1.125" stroke-linecap="round" stroke-linejoin="round"/>
<path d="M10.4062 15H12C12.8288 15 13.5 14.3288 13.5 13.5V12.75" stroke="#FCFCFD" stroke-width="1.125" stroke-linecap="round" stroke-linejoin="round"/>
</svg>
