<svg width="20" height="20" viewBox="0 0 20 20" fill="none" xmlns="http://www.w3.org/2000/svg">
<path d="M10 0C4.47711 0 0 4.47711 0 10C0 15.5229 4.47711 20 10 20C15.5229 20 20 15.5229 20 10C20 4.47711 15.5229 0 10 0Z" fill="#40B3E0"/>
<path d="M14.8634 5.74421L13.0773 14.7494C13.0773 14.7494 12.8275 15.374 12.1405 15.0742L8.01882 11.9142L6.52007 11.1898L3.9971 10.3405C3.9971 10.3405 3.60991 10.2031 3.57241 9.90335C3.53499 9.60358 4.0096 9.44124 4.0096 9.44124L14.039 5.50687C14.039 5.50687 14.8634 5.14468 14.8634 5.74421Z" fill="white"/>
<path d="M7.69758 14.6576C7.69758 14.6576 7.57727 14.6463 7.42734 14.1716C7.2775 13.697 6.51562 11.1991 6.51562 11.1991L12.5732 7.35219C12.5732 7.35219 12.923 7.13984 12.9105 7.35219C12.9105 7.35219 12.9729 7.38961 12.7855 7.56445C12.5982 7.73937 8.02688 11.8485 8.02688 11.8485" fill="#D2E5F1"/>
<path d="M9.60031 13.137L7.97 14.6234C7.97 14.6234 7.84258 14.7201 7.70312 14.6595L8.01531 11.8984" fill="#B5CFE4"/>
</svg>
