<svg width="18" height="17" viewBox="0 0 18 17" fill="none" xmlns="http://www.w3.org/2000/svg">
<rect x="2.99805" y="2" width="12.005" height="12.005" rx="2.66667" stroke="#777E91" stroke-linecap="round" stroke-linejoin="round"/>
<path d="M7.33142 9.66406L5.66406 11.3369" stroke="#777E91" stroke-linecap="round" stroke-linejoin="round"/>
<path fill-rule="evenodd" clip-rule="evenodd" d="M9.08615 9.77089L8.64508 8.35195L7.22612 7.91086C7.10823 7.87421 7.02136 7.77381 7.00205 7.65187C6.98274 7.52994 7.03432 7.40761 7.13512 7.33633L8.34829 6.47837L8.3293 4.99258C8.32771 4.86912 8.39635 4.75548 8.50635 4.69942C8.61636 4.64337 8.74865 4.65463 8.84759 4.72847L10.0385 5.61724L11.4457 5.14004C11.5626 5.10039 11.6919 5.13056 11.7792 5.21786C11.8665 5.30516 11.8966 5.43444 11.857 5.55136L11.3798 6.95853L12.2685 8.1494C12.3423 8.24835 12.3536 8.38063 12.2975 8.49064C12.2415 8.60064 12.1278 8.66928 12.0044 8.66769L10.5186 8.6487L9.66066 9.86187C9.58937 9.96265 9.46706 10.0142 9.34513 9.99492C9.22321 9.97561 9.12281 9.88877 9.08615 9.77089V9.77089Z" stroke="#777E91" stroke-linecap="round" stroke-linejoin="round"/>
</svg>
