<svg width="16" height="15" viewBox="0 0 16 15" fill="none" xmlns="http://www.w3.org/2000/svg">
<path d="M7.99806 10.2109C7.83758 10.2109 7.70627 10.3422 7.70803 10.5027C7.70803 10.6632 7.83933 10.7945 7.99981 10.7945C8.1603 10.7945 8.2916 10.6632 8.2916 10.5027C8.2916 10.3422 8.1603 10.2109 7.99806 10.2109" stroke="#323232" stroke-width="1.5" stroke-linecap="round" stroke-linejoin="round"/>
<path d="M7.99806 6.71094C7.83758 6.71094 7.70627 6.84224 7.70803 7.00273C7.70803 7.16321 7.83933 7.29451 7.99981 7.29451C8.1603 7.29451 8.2916 7.16321 8.2916 7.00273C8.2916 6.84224 8.1603 6.71094 7.99806 6.71094" stroke="#323232" stroke-width="1.5" stroke-linecap="round" stroke-linejoin="round"/>
<path d="M7.99806 3.21094C7.83758 3.21094 7.70627 3.34224 7.70803 3.50273C7.70803 3.66321 7.83933 3.79451 7.99981 3.79451C8.1603 3.79451 8.2916 3.66321 8.2916 3.50273C8.2916 3.34224 8.1603 3.21094 7.99806 3.21094" stroke="#323232" stroke-width="1.5" stroke-linecap="round" stroke-linejoin="round"/>
</svg>
