<svg width="28" height="28" viewBox="0 0 28 28" fill="none" xmlns="http://www.w3.org/2000/svg">
<path d="M13.9998 13.25C11.5358 13.25 9.51967 11.2348 9.51967 8.76983H8.01967C8.01967 12.0635 10.7076 14.75 13.9998 14.75V13.25ZM9.51967 8.76983C9.51967 6.29744 11.5431 4.25 13.9998 4.25V2.75C10.7002 2.75 8.01967 5.48356 8.01967 8.76983H9.51967ZM13.9998 4.25C16.4639 4.25 18.48 6.26516 18.48 8.73017H19.98C19.98 5.43651 17.2921 2.75 13.9998 2.75V4.25ZM18.48 8.73017C18.48 11.2026 16.4566 13.25 13.9998 13.25V14.75C17.2995 14.75 19.98 12.0164 19.98 8.73017H18.48ZM22.1665 23.75H5.83317V25.25H22.1665V23.75ZM5.83317 23.75C5.60572 23.75 5.4165 23.5608 5.4165 23.3333H3.9165C3.9165 24.3892 4.77729 25.25 5.83317 25.25V23.75ZM5.4165 23.3333V22.1667H3.9165V23.3333H5.4165ZM5.4165 22.1667C5.4165 20.0142 7.18072 18.25 9.33317 18.25V16.75C6.35229 16.75 3.9165 19.1858 3.9165 22.1667H5.4165ZM9.33317 18.25H18.6665V16.75H9.33317V18.25ZM18.6665 18.25C20.819 18.25 22.5832 20.0142 22.5832 22.1667H24.0832C24.0832 19.1858 21.6474 16.75 18.6665 16.75V18.25ZM22.5832 22.1667V23.3333H24.0832V22.1667H22.5832ZM22.5832 23.3333C22.5832 23.5608 22.394 23.75 22.1665 23.75V25.25C23.2224 25.25 24.0832 24.3892 24.0832 23.3333H22.5832Z" fill="#B1B5C4"/>
</svg>
