<svg width="12" height="12" viewBox="0 0 12 12" fill="none" xmlns="http://www.w3.org/2000/svg">
<path d="M6.705 6.00205L8.855 3.85705C9.05106 3.66098 9.05106 3.34311 8.855 3.14705C8.65894 2.95098 8.34106 2.95098 8.145 3.14705L6 5.29705L3.855 3.14705C3.65894 2.95098 3.34106 2.95098 3.145 3.14705C2.94894 3.34311 2.94894 3.66098 3.145 3.85705L5.295 6.00205L3.145 8.14705C3.05034 8.24093 2.9971 8.36873 2.9971 8.50205C2.9971 8.63536 3.05034 8.76316 3.145 8.85705C3.23888 8.9517 3.36668 9.00494 3.5 9.00494C3.63332 9.00494 3.76112 8.9517 3.855 8.85705L6 6.70705L8.145 8.85705C8.23888 8.9517 8.36668 9.00494 8.5 9.00494C8.63332 9.00494 8.76112 8.9517 8.855 8.85705C8.94966 8.76316 9.0029 8.63536 9.0029 8.50205C9.0029 8.36873 8.94966 8.24093 8.855 8.14705L6.705 6.00205Z" fill="#FCFCFD"/>
</svg>
